<svg width="48" height="40" viewBox="0 0 48 40" fill="none" xmlns="http://www.w3.org/2000/svg">
<path d="M14.9625 31.2969H31.5312V22.5104M1.40625 22.5104V28.7864C1.40625 29.4523 1.72331 30.0912 2.28891 30.5619C2.85375 31.0326 3.61969 31.2968 4.41872 31.2968C5.24869 31.2968 5.925 31.2968 5.925 31.2968" stroke="#56704E" stroke-miterlimit="10" stroke-linecap="round" stroke-linejoin="round"/>
<path d="M31.5312 22.5104V7.44789C31.5312 6.78266 31.2142 6.14375 30.6486 5.67305C30.0837 5.20234 29.3178 4.9375 28.5188 4.9375C22.7468 4.9375 10.1907 4.9375 4.41872 4.9375C3.61969 4.9375 2.85375 5.20234 2.28891 5.67305C1.72331 6.14375 1.40625 6.78266 1.40625 7.44789C1.40625 12.3043 1.40625 22.5104 1.40625 22.5104" stroke="#56704E" stroke-miterlimit="10" stroke-linecap="round" stroke-linejoin="round"/>
<path d="M40.5688 31.2969H43.5812C44.3803 31.2969 45.1462 31.0326 45.711 30.5619C46.2766 30.0912 46.5937 29.4523 46.5937 28.7865C46.5937 26.2333 46.5937 22.1753 46.5937 18.7448C46.5937 15.2792 43.222 12.4688 39.0625 12.4688H31.5312V31.2969" stroke="#56704E" stroke-miterlimit="10" stroke-linecap="round" stroke-linejoin="round"/>
<path d="M10.4436 35.0625C12.9392 35.0625 14.9623 33.3766 14.9623 31.2969C14.9623 29.2172 12.9392 27.5312 10.4436 27.5312C7.94792 27.5312 5.9248 29.2172 5.9248 31.2969C5.9248 33.3766 7.94792 35.0625 10.4436 35.0625Z" stroke="#56704E" stroke-miterlimit="10" stroke-linecap="round" stroke-linejoin="round"/>
<path d="M36.05 35.0625C38.5456 35.0625 40.5687 33.3766 40.5687 31.2969C40.5687 29.2172 38.5456 27.5312 36.05 27.5312C33.5544 27.5312 31.5312 29.2172 31.5312 31.2969C31.5312 33.3766 33.5544 35.0625 36.05 35.0625Z" stroke="#56704E" stroke-miterlimit="10" stroke-linecap="round" stroke-linejoin="round"/>
</svg>
