<svg width="20" height="19" viewBox="0 0 20 19" fill="none" xmlns="http://www.w3.org/2000/svg">
<g clip-path="url(#clip0_3_2226)">
<path d="M9.99999 17.8915C9.73424 17.8915 9.47804 17.7952 9.27837 17.6204C8.52428 16.961 7.79725 16.3413 7.15581 15.7947L7.15254 15.7919C5.27194 14.1893 3.64798 12.8053 2.51806 11.442C1.25497 9.91783 0.666656 8.47274 0.666656 6.89406C0.666656 5.36025 1.1926 3.94521 2.14749 2.90942C3.11378 1.86139 4.43967 1.28418 5.88134 1.28418C6.95885 1.28418 7.94565 1.62484 8.81424 2.29661C9.25259 2.6357 9.64993 3.0507 9.99999 3.53477C10.3502 3.0507 10.7474 2.6357 11.1859 2.29661C12.0545 1.62484 13.0413 1.28418 14.1188 1.28418C15.5603 1.28418 16.8863 1.86139 17.8526 2.90942C18.8075 3.94521 19.3333 5.36025 19.3333 6.89406C19.3333 8.47274 18.7451 9.91783 17.4821 11.4418C16.3521 12.8053 14.7283 14.1891 12.848 15.7916C12.2054 16.339 11.4773 16.9597 10.7215 17.6206C10.5219 17.7952 10.2656 17.8915 9.99999 17.8915ZM5.88134 2.37764C4.74871 2.37764 3.70822 2.82967 2.95128 3.65055C2.1831 4.48383 1.75998 5.63568 1.75998 6.89406C1.75998 8.2218 2.25345 9.40926 3.35987 10.7443C4.42927 12.0347 6.01991 13.3902 7.86162 14.9598L7.86504 14.9626C8.5089 15.5113 9.23878 16.1334 9.99842 16.7976C10.7626 16.1321 11.4936 15.5091 12.1388 14.9595C13.9804 13.3899 15.5709 12.0347 16.6402 10.7443C17.7465 9.40926 18.24 8.2218 18.24 6.89406C18.24 5.63568 17.8169 4.48383 17.0487 3.65055C16.2919 2.82967 15.2513 2.37764 14.1188 2.37764C13.2891 2.37764 12.5273 2.6414 11.8547 3.1615C11.2552 3.6252 10.8377 4.21139 10.5929 4.62154C10.467 4.83246 10.2454 4.95835 9.99999 4.95835C9.75461 4.95835 9.53301 4.83246 9.40711 4.62154C9.16245 4.21139 8.74488 3.6252 8.14531 3.1615C7.47269 2.6414 6.71091 2.37764 5.88134 2.37764Z" fill="white"/>
</g>
<defs>
<clipPath id="clip0_3_2226">
<rect width="18.6667" height="18.6667" fill="white" transform="translate(0.666656 0.263428)"/>
</clipPath>
</defs>
</svg>
