<svg width="145" height="49" viewBox="0 0 145 49" fill="none" xmlns="http://www.w3.org/2000/svg">
<g id="Logo 6" opacity="0.25">
<mask id="mask0_76_704" style="mask-type:alpha" maskUnits="userSpaceOnUse" x="0" y="0" width="145" height="49">
<path id="Vector" d="M144.541 33.729C144.431 33.4992 144.161 33.4026 143.932 33.5084C138.596 36.0415 134.361 34.1152 129.452 31.8809C128.21 31.3155 126.921 30.7316 125.583 30.2075C119.024 27.6377 112.015 25.1873 104.823 25.9091C99.6118 26.4286 94.9181 28.6215 91.6132 32.074C91.2098 32.497 90.8248 32.9383 90.4489 33.3704C89.711 34.2209 89.0097 35.0254 88.1708 35.6966C86.7682 36.8138 85.1685 37.2551 83.8942 36.869C82.7712 36.5334 81.992 35.6783 81.7491 34.5243C82.7621 34.0095 83.6284 33.0624 84.1234 31.8763C84.3801 31.2557 84.3251 30.7132 83.9722 30.3822C83.7201 30.1478 83.335 30.065 82.9683 30.1616C82.675 30.2397 82.4412 30.4144 82.2716 30.5569C81.2724 31.3982 80.7269 32.6441 80.759 33.9313C80.6215 33.9681 80.4794 33.9957 80.3327 34.0141C79.2693 34.1336 78.1875 33.7336 77.7062 33.0348C77.3029 32.4556 77.3258 31.6924 77.7704 30.8098C77.9125 30.4972 78.0729 30.0466 77.83 29.7064C77.6925 29.518 77.4633 29.4214 77.202 29.449C76.1157 29.5593 73.2463 32.1522 72.0225 34.9013C71.9995 34.9565 71.9766 34.9933 71.9583 35.0209C71.5503 34.7312 70.8261 33.0578 70.7115 32.5246C70.6382 32.1798 70.5832 31.8396 70.5557 31.504C71.2478 30.8236 71.9858 29.7616 72.0866 28.695C72.1462 28.0882 71.9262 27.6239 71.5045 27.4538C70.9819 27.2423 70.4227 27.5733 70.1156 28.2767C69.7535 29.1088 69.5885 30.088 69.6206 31.1224C69.098 31.6051 68.328 31.9913 67.5212 32.1798C68.1309 31.0718 68.5663 29.8903 68.6809 28.9893C68.823 27.817 68.5938 26.9435 67.9934 26.3964C67.2646 25.7206 66.2149 25.7666 65.4723 26.0332C64.6152 26.3412 63.8772 26.9711 63.4326 27.7756C62.9696 28.3043 62.4883 29.2099 62.1171 30.2259C61.2737 31.7706 58.3538 36.0368 55.0627 40.0181C51.1528 44.7486 48.0955 47.4334 46.4591 47.5759C46.1016 47.6127 45.8449 47.507 45.6478 47.2587C44.9603 46.3945 45.0657 44.9831 45.2857 43.5855C46.1291 38.17 48.9252 32.7728 51.3912 28.0147L51.4829 27.8354C52.2758 26.3045 53.0917 24.792 53.9214 23.3025C59.4493 20.4614 64.5969 16.7422 67.425 13.1471C69.6206 10.3566 71.8941 7.46955 72.3571 3.65843C72.4304 3.07458 72.4717 2.38959 72.2379 1.74597C71.9124 0.835719 71.3349 0.573679 70.9086 0.513915C68.603 0.196705 64.4364 5.36402 61.347 9.75439L61.3149 9.80035C58.4822 13.8229 55.7778 18.126 53.243 22.6359C48.0726 25.2609 42.5905 27.086 38.4514 27.2561C34.1381 27.4308 29.3619 26.2999 24.7415 25.2057C15.9775 23.1324 6.92008 20.9854 0.718331 27.7664C0.548734 27.9549 0.557901 28.2445 0.745833 28.4146C0.933765 28.5847 1.22254 28.5755 1.39214 28.387C7.23178 22.0015 15.6337 23.9921 24.5307 26.0976C29.2106 27.2055 34.0465 28.3548 38.4881 28.171C42.4209 28.01 47.5317 26.3918 52.4775 24.0197C51.8633 25.1368 51.2629 26.2677 50.6716 27.4078L50.5799 27.5871C48.0818 32.4096 45.249 37.8758 44.3827 43.443C44.2131 44.5234 43.9014 46.5324 44.9373 47.8334C45.2857 48.2701 45.7716 48.5 46.3445 48.5C46.4087 48.5 46.4775 48.5 46.5416 48.4908C50.3553 48.1552 58.1567 37.9033 61.5166 32.9015C61.4799 33.4716 61.5166 34.0003 61.6587 34.437C61.8833 35.122 62.3371 35.5495 62.9696 35.6783C63.1117 35.7058 63.2492 35.7197 63.3959 35.7197C64.5327 35.7197 65.7794 34.8278 66.8933 33.2049C67.8971 33.1222 68.9285 32.7498 69.7306 32.2027C69.7581 32.3728 69.7856 32.5429 69.8269 32.713C69.8314 32.7452 70.7207 35.8346 71.9216 35.9541C72.1508 35.9771 72.5771 35.9173 72.8704 35.2645C73.8513 33.067 75.9232 31.1132 76.8903 30.5293C76.2165 31.9591 76.5557 32.9567 76.9637 33.5497C77.6421 34.5289 79.0447 35.076 80.4473 34.9197C80.5986 34.9013 80.7452 34.8737 80.8919 34.8416C81.2357 36.2483 82.2487 37.3241 83.6376 37.7424C84.0363 37.862 84.4535 37.9217 84.8797 37.9217C86.1494 37.9217 87.5016 37.3976 88.7484 36.4092C89.6514 35.6875 90.4123 34.814 91.1457 33.9681C91.5124 33.5452 91.8928 33.113 92.2778 32.7039C95.4314 29.4076 99.9235 27.3159 104.92 26.8148C111.91 26.1114 118.799 28.525 125.258 31.058C126.578 31.5729 127.852 32.1522 129.085 32.713C133.99 34.9427 138.619 37.0482 144.335 34.3313C144.564 34.2209 144.66 33.9497 144.555 33.7198L144.541 33.729ZM62.0621 10.3336L62.0941 10.2877C66.7054 3.73658 69.5289 1.41957 70.6794 1.41957C70.7161 1.41957 70.7482 1.41956 70.7849 1.42416C70.9499 1.44715 71.1882 1.53451 71.3762 2.054C71.5412 2.51832 71.5045 3.06539 71.4495 3.5435C71.014 7.09717 68.9239 9.75898 66.7054 12.5771C64.1522 15.8182 59.6694 19.1696 54.7465 21.8497C57.0567 17.818 59.5089 13.9609 62.0621 10.3336ZM63.1484 34.7818C62.9559 34.745 62.6809 34.6347 62.525 34.1566C62.2454 33.3015 62.5067 31.8763 62.9513 30.6121C63.1713 31.5453 63.8405 32.3039 64.9773 32.9061C65.2111 33.0303 65.4815 33.1176 65.7794 33.1728C64.8627 34.3451 63.9047 34.9427 63.1484 34.7818ZM66.3845 32.3085C65.9995 32.2993 65.6603 32.2257 65.4082 32.0924C63.8222 31.2511 63.4418 30.2213 64.0972 28.5249C64.1293 28.433 64.1706 28.3503 64.2118 28.2675C64.2118 28.2675 64.2164 28.2583 64.221 28.2537C64.5556 27.6285 65.124 27.1366 65.784 26.9021C66.2516 26.7366 66.9483 26.6814 67.3792 27.0768C67.8375 27.4952 67.8467 28.2905 67.7779 28.8789C67.6634 29.8076 67.1133 31.1592 66.3891 32.3085H66.3845ZM70.959 28.6445C71.0232 28.4974 71.1057 28.3916 71.1653 28.341C71.1791 28.3962 71.1882 28.4836 71.1791 28.6031C71.1332 29.095 70.8903 29.6007 70.5878 30.0466C70.6519 29.5409 70.7803 29.0674 70.9636 28.6399L70.959 28.6445ZM82.8675 31.2603C82.9638 31.1776 83.0921 31.081 83.2113 31.0488C83.2388 31.0442 83.2617 31.0396 83.28 31.0396C83.3167 31.0396 83.3442 31.0488 83.3534 31.0534C83.3855 31.081 83.3946 31.2511 83.2846 31.5224C83.0004 32.2074 82.455 32.9935 81.6987 33.5038C81.7812 32.6395 82.1937 31.835 82.8675 31.2649V31.2603Z" fill="url(#paint0_linear_76_704)"/>
</mask>
<g mask="url(#mask0_76_704)">
<rect id="Rectangle" x="0.597656" y="0.5" width="143.928" height="47.8114" fill="#222222"/>
</g>
</g>
<defs>
<linearGradient id="paint0_linear_76_704" x1="37.9472" y1="65.7397" x2="107.425" y2="-3.53356" gradientUnits="userSpaceOnUse">
<stop stop-color="#AB8D60"/>
<stop offset="0.15" stop-color="#AB8D60"/>
<stop offset="0.37" stop-color="#C6AC7E"/>
<stop offset="0.61" stop-color="#E1CB9B"/>
<stop offset="0.72" stop-color="#EED9AB"/>
<stop offset="0.84" stop-color="#E1CB9B"/>
<stop offset="1" stop-color="#AB8D60"/>
</linearGradient>
</defs>
</svg>
