<svg width="128" height="43" viewBox="0 0 128 43" fill="none" xmlns="http://www.w3.org/2000/svg">
<g id="Logo 1">
<path d="M29.9529 2.27153C29.4261 2.27153 28.8635 2.28383 28.2649 2.30844C27.6663 2.33304 27.0438 2.3884 26.3973 2.47452C25.7508 2.54833 25.0924 2.6652 24.422 2.82513C23.7516 2.97276 23.0812 3.1696 22.4108 3.41564C21.7883 3.64938 21.1837 3.92619 20.5971 4.24605C20.0105 4.5536 19.4837 4.91037 19.0168 5.31634C18.5619 5.71002 18.1908 6.14675 17.9035 6.62654C17.6281 7.10633 17.4905 7.62302 17.4905 8.17663C17.4905 8.49648 17.5443 8.76098 17.6521 8.97012C17.7598 9.17926 17.8855 9.28383 18.0292 9.28383C18.4602 9.28383 18.9031 9.19156 19.358 9.00703C19.8249 8.8225 20.2858 8.5826 20.7407 8.28735C21.1957 7.97979 21.6386 7.63532 22.0696 7.25395C22.5125 6.86028 22.9256 6.46661 23.3086 6.07293C23.6917 5.66696 24.0389 5.27329 24.3502 4.89192C24.6734 4.51054 24.9487 4.16608 25.1762 3.85852L25.4635 4.33831C24.8769 5.49473 24.2125 6.52812 23.4703 7.43849C23.147 7.83216 22.7939 8.21353 22.4108 8.5826C22.0277 8.95167 21.6087 9.28383 21.1538 9.57909C20.7108 9.86204 20.232 10.0958 19.7172 10.2803C19.2024 10.4525 18.6637 10.5387 18.101 10.5387C17.8496 10.5387 17.6162 10.4772 17.4007 10.3541C17.1972 10.2188 17.0176 10.0466 16.862 9.83743C16.7063 9.62829 16.5866 9.3884 16.5028 9.11775C16.419 8.8471 16.3771 8.5703 16.3771 8.28735C16.3771 7.94288 16.4429 7.59842 16.5746 7.25395C16.7063 6.89719 16.8799 6.55272 17.0954 6.22056C17.3229 5.8761 17.5862 5.55009 17.8855 5.24253C18.1848 4.93497 18.508 4.65817 18.8552 4.41213C19.5256 3.93234 20.2858 3.50791 21.1358 3.13884C21.9858 2.76977 22.8837 2.46221 23.8294 2.21617C24.7871 1.97012 25.7628 1.78559 26.7565 1.66257C27.7621 1.52724 28.7557 1.45958 29.7374 1.45958C29.9169 1.45958 30.0965 1.45958 30.2761 1.45958C30.4557 1.45958 30.6352 1.47188 30.8148 1.49649C31.3895 1.53339 31.9282 1.60721 32.431 1.71793C33.4007 1.20123 34.4063 0.795255 35.4478 0.5L35.7351 0.979789C35.4119 1.18893 35.0887 1.39192 34.7654 1.58875C34.4542 1.77329 34.1549 1.97627 33.8676 2.19772C34.5859 2.52988 35.1246 2.96046 35.4837 3.48946C35.8429 4.01845 36.0224 4.60896 36.0224 5.26098C36.0224 5.76538 35.9327 6.26977 35.7531 6.77417C35.5855 7.26626 35.3461 7.74605 35.0348 8.21353C34.7355 8.66872 34.3704 9.0993 33.9394 9.50527C33.5204 9.91125 33.0655 10.268 32.5746 10.5756C32.9098 11.0677 33.0774 11.5721 33.0774 12.0888C33.0774 12.7162 32.8979 13.3743 32.5387 14.0633C32.1915 14.7399 31.7247 15.4288 31.138 16.1301C30.5634 16.8313 29.905 17.5325 29.1627 18.2337C28.4205 18.935 27.6603 19.6178 26.8822 20.2821C26.116 20.9341 25.3618 21.5677 24.6195 22.1828C23.8893 22.7856 23.2308 23.3453 22.6442 23.862C22.0696 24.3664 21.6027 24.8216 21.2435 25.2276C20.8964 25.6213 20.7228 25.9411 20.7228 26.1872C20.7228 26.4332 20.7647 26.6301 20.8485 26.7777C20.9443 26.913 21.064 27.0176 21.2076 27.0914C21.3633 27.1652 21.5369 27.2144 21.7284 27.239C21.9319 27.2513 22.1474 27.2575 22.3749 27.2575C22.8777 27.2575 23.4523 27.1775 24.0988 27.0176C24.7452 26.8453 25.4037 26.6362 26.0741 26.3902C26.7565 26.1441 27.4209 25.8735 28.0673 25.5782C28.7258 25.283 29.3184 25.0062 29.8451 24.7478L30.0247 25.1907C28.205 26.1011 26.5589 26.8207 25.0864 27.3497C23.6139 27.8787 22.3629 28.1432 21.3333 28.1432C21.046 28.1432 20.7467 28.1186 20.4355 28.0694C20.1242 28.0202 19.8369 27.9156 19.5735 27.7557C19.3101 27.5958 19.0947 27.3682 18.927 27.0729C18.7594 26.7777 18.6756 26.384 18.6756 25.8919C18.6756 25.4367 18.8492 24.9446 19.1964 24.4156C19.5556 23.8743 20.0224 23.3146 20.5971 22.7364C21.1717 22.1582 21.8242 21.5615 22.5544 20.9464C23.2847 20.319 24.0329 19.6916 24.7991 19.0641C25.5653 18.4244 26.3135 17.7847 27.0438 17.145C27.774 16.5053 28.4265 15.8779 29.0011 15.2627C29.5758 14.6353 30.0367 14.0264 30.3838 13.4359C30.743 12.833 30.9226 12.261 30.9226 11.7197C30.9226 11.6213 30.9046 11.5167 30.8687 11.406C30.8447 11.2953 30.8028 11.203 30.743 11.1292C30.5874 11.2645 30.4257 11.3691 30.2581 11.4429C30.0905 11.5044 29.9289 11.5536 29.7733 11.5905C29.6177 11.6151 29.48 11.6336 29.3603 11.6459C29.2525 11.6459 29.1747 11.6459 29.1268 11.6459C28.8515 11.6459 28.6061 11.6028 28.3906 11.5167C28.1871 11.4183 28.0135 11.3076 27.8698 11.1845C27.7262 11.0492 27.6184 10.9077 27.5466 10.7601C27.4747 10.6002 27.4388 10.4525 27.4388 10.3172C27.4388 9.98506 27.5765 9.68981 27.8519 9.43146C28.1392 9.16081 28.5881 9.02548 29.1987 9.02548C29.6655 9.02548 30.0905 9.08699 30.4736 9.21002C30.8687 9.32074 31.2218 9.46837 31.5331 9.6529C31.8563 9.36995 32.1736 9.05624 32.4849 8.71177C32.7961 8.35501 33.0774 7.99209 33.3288 7.62302C33.5802 7.24165 33.7778 6.86643 33.9214 6.49736C34.0771 6.11599 34.1549 5.75308 34.1549 5.40861C34.1549 4.89192 34.0711 4.41213 33.9035 3.96924C33.7478 3.52636 33.4246 3.15729 32.9338 2.86204C32.1317 3.48946 31.3835 4.13532 30.6891 4.79965C30.0067 5.46397 29.3603 6.12829 28.7497 6.79262C28.1392 7.44464 27.5705 8.08436 27.0438 8.71177C26.517 9.33919 26.0142 9.92355 25.5354 10.4649C25.1762 10.8831 24.7572 11.3752 24.2783 11.9411C23.7995 12.507 23.2787 13.1221 22.7161 13.7865C22.1534 14.4385 21.5668 15.1213 20.9562 15.8348C20.3457 16.5483 19.7291 17.268 19.1066 17.9938C18.4961 18.7074 17.8855 19.4086 17.275 20.0975C16.6644 20.7742 16.0898 21.4016 15.5511 21.9798C14.7131 22.8779 13.8571 23.7021 12.9832 24.4525C12.1092 25.203 11.1994 25.855 10.2536 26.4086C9.30789 26.9499 8.32623 27.3743 7.30864 27.6819C6.29106 27.9895 5.2196 28.1432 4.09428 28.1432C2.78938 28.1432 1.77778 27.8849 1.05948 27.3682C0.353161 26.8515 0 26.1749 0 25.3383C0 25.0308 0.0478863 24.717 0.143659 24.3972C0.239431 24.065 0.38309 23.7698 0.574635 23.5114C0.778152 23.2408 1.02357 23.0255 1.31089 22.8656C1.61018 22.6933 1.95137 22.6072 2.33446 22.6072C2.76543 22.6072 3.10064 22.7241 3.34007 22.9578C3.5795 23.1916 3.69921 23.5299 3.69921 23.9728C3.69921 24.3787 3.60344 24.7109 3.4119 24.9692C3.23232 25.2153 3.03479 25.4244 2.8193 25.5967C2.60382 25.7689 2.4003 25.9288 2.20875 26.0764C2.02918 26.2118 1.93939 26.3717 1.93939 26.5562C1.93939 26.8146 2.08305 27.0114 2.37037 27.1467C2.65769 27.2698 3.05275 27.3313 3.55556 27.3313C4.51328 27.3313 5.40516 27.1837 6.2312 26.8884C7.05724 26.5931 7.84736 26.181 8.60157 25.652C9.35578 25.123 10.092 24.4895 10.8103 23.7513C11.5406 23.0132 12.2828 22.2012 13.037 21.3155C14.1983 19.9622 15.4493 18.5105 16.7901 16.9605C18.1429 15.4104 19.5256 13.8111 20.9383 12.1626C21.6326 11.3506 22.3749 10.5018 23.165 9.61599C23.9671 8.73023 24.8051 7.85677 25.679 6.99561C26.5529 6.12214 27.4628 5.29174 28.4085 4.50439C29.3543 3.70475 30.324 2.99736 31.3176 2.38225C30.9226 2.30844 30.4676 2.27153 29.9529 2.27153Z" fill="#222222"/>
<path d="M44.0314 24.3787C43.4568 24.3787 42.942 24.2803 42.4871 24.0835C42.0441 23.8743 41.6611 23.5914 41.3378 23.2346C40.6914 24.2803 40.0509 25.1292 39.4164 25.7812C38.7819 26.4332 38.1654 26.9438 37.5668 27.3128C36.9802 27.6819 36.4115 27.9341 35.8608 28.0694C35.3221 28.1924 34.8133 28.254 34.3345 28.254C33.7598 28.254 33.257 28.1863 32.826 28.051C32.3951 27.9033 32.0359 27.7127 31.7486 27.4789C31.4613 27.2329 31.2458 26.9499 31.1021 26.6301C30.9585 26.2979 30.8866 25.9411 30.8866 25.5598C30.8866 24.7847 31.0363 24.0343 31.3356 23.3084C31.6349 22.5703 32.0359 21.8875 32.5387 21.2601C33.0415 20.6204 33.6162 20.0422 34.2626 19.5255C34.9211 18.9965 35.5975 18.5475 36.2918 18.1784C36.9862 17.797 37.6805 17.5079 38.3749 17.3111C39.0692 17.1019 39.7097 16.9974 40.2963 16.9974C40.6076 16.9974 40.9188 17.022 41.2301 17.0712C41.5413 17.1204 41.8227 17.2188 42.0741 17.3664C42.3255 17.5141 42.529 17.717 42.6846 17.9754C42.8403 18.2337 42.9181 18.5721 42.9181 18.9903C42.9181 19.2733 42.8881 19.5685 42.8283 19.8761C42.7804 20.1714 42.7205 20.4605 42.6487 20.7434C42.5769 21.0264 42.4931 21.297 42.3973 21.5554C42.3135 21.8137 42.2357 22.0413 42.1639 22.2381C42.2596 22.7179 42.517 23.087 42.936 23.3453C43.367 23.5914 43.8279 23.7144 44.3187 23.7144C44.7138 23.7144 45.1089 23.6344 45.5039 23.4745C45.911 23.3146 46.2701 23.087 46.5814 22.7917L46.9405 23.087C46.6293 23.4807 46.2103 23.7944 45.6835 24.0281C45.1568 24.2619 44.6061 24.3787 44.0314 24.3787ZM35.0887 27.1467C35.4837 27.1467 35.9327 27.0606 36.4355 26.8884C36.9383 26.7162 37.4471 26.4455 37.9618 26.0764C38.4886 25.7074 39.0034 25.2337 39.5062 24.6555C40.009 24.0773 40.4639 23.3822 40.8709 22.5703C40.4639 21.8814 40.2604 21.1555 40.2604 20.3928C40.2604 19.9991 40.3442 19.6424 40.5118 19.3225C40.6914 18.9903 40.9547 18.6582 41.3019 18.326C41.2301 18.2891 41.1343 18.2645 41.0146 18.2522C40.9068 18.2276 40.7512 18.2153 40.5477 18.2153C40.1287 18.2153 39.6199 18.3629 39.0213 18.6582C38.4347 18.9534 37.8302 19.3533 37.2076 19.8576C36.5971 20.3497 36.0165 20.9279 35.4658 21.5923C34.9151 22.2566 34.4781 22.9517 34.1549 23.6775C34.0112 23.9728 33.8736 24.3172 33.7419 24.7109C33.6102 25.0923 33.5443 25.4613 33.5443 25.8181C33.5443 26.1872 33.6521 26.5009 33.8676 26.7592C34.0831 27.0176 34.4901 27.1467 35.0887 27.1467Z" fill="#222222"/>
<path d="M61.486 11.2768C60.7677 12.0518 60.1212 12.7469 59.5466 13.362C58.9719 13.9772 58.4033 14.5738 57.8406 15.152C57.278 15.7179 56.6914 16.3023 56.0808 16.9051C55.4703 17.4956 54.7699 18.1599 53.9798 18.8981C53.1897 19.6239 52.2739 20.4543 51.2323 21.3893C50.2028 22.3243 48.9877 23.4192 47.587 24.674C47.4553 25.0062 47.3535 25.3137 47.2817 25.5967C47.2219 25.8673 47.1919 26.1134 47.1919 26.3348C47.1919 26.507 47.2398 26.6547 47.3356 26.7777C47.4314 26.8884 47.5511 26.9807 47.6947 27.0545C47.8504 27.1283 48.018 27.1837 48.1975 27.2206C48.3891 27.2452 48.5687 27.2575 48.7363 27.2575C49.0595 27.2575 49.4366 27.2206 49.8676 27.1467C50.3105 27.0729 50.8253 26.9438 51.4119 26.7592C52.0105 26.5624 52.6988 26.304 53.477 25.9842C54.2671 25.6643 55.177 25.2522 56.2065 24.7478L56.3861 25.1907C55.3086 25.7197 54.3389 26.1687 53.477 26.5378C52.615 26.9069 51.8309 27.2144 51.1246 27.4605C50.4302 27.6942 49.7957 27.8664 49.2211 27.9772C48.6584 28.0879 48.1377 28.1432 47.6588 28.1432C47.168 28.1432 46.7609 28.094 46.4377 27.9956C46.1265 27.8972 45.875 27.768 45.6835 27.6081C45.5039 27.4359 45.3782 27.2329 45.3064 26.9991C45.2226 26.7654 45.1807 26.507 45.1807 26.2241C45.1807 25.6459 45.3543 24.9385 45.7015 24.1019C46.0606 23.2654 46.5335 22.355 47.1201 21.3708C47.7187 20.3866 48.407 19.3533 49.1852 18.2706C49.9633 17.1757 50.7774 16.087 51.6274 15.0044C52.4893 13.9218 53.3573 12.8638 54.2312 11.8304C55.1171 10.797 55.9551 9.83743 56.7452 8.95167C56.9847 8.68102 57.3019 8.34886 57.697 7.95518C58.092 7.56151 58.529 7.14938 59.0079 6.7188C59.4867 6.27592 59.9895 5.83919 60.5163 5.40861C61.055 4.97803 61.5817 4.59051 62.0965 4.24605C62.6233 3.90158 63.1201 3.62478 63.587 3.41564C64.0658 3.1942 64.4908 3.08348 64.862 3.08348C65.3528 3.08348 65.694 3.2065 65.8855 3.45255C66.089 3.69859 66.1908 4.01845 66.1908 4.41213C66.1908 4.71968 66.095 5.07645 65.9035 5.48243C65.7119 5.8884 65.4665 6.31898 65.1672 6.77417C64.8679 7.22935 64.5327 7.69069 64.1616 8.15817C63.8025 8.62566 63.4493 9.06239 63.1021 9.46837C62.755 9.87434 62.4317 10.2373 62.1324 10.5571C61.8451 10.877 61.6296 11.1169 61.486 11.2768ZM59.798 8.87786C59.1635 9.52988 58.4931 10.2373 57.7868 11C57.0804 11.7627 56.3681 12.5562 55.6498 13.3805C54.9435 14.1924 54.2372 15.0228 53.5309 15.8717C52.8365 16.7206 52.1721 17.5633 51.5376 18.3998C50.9151 19.2241 50.3345 20.0299 49.7957 20.8172C49.257 21.5923 48.7961 22.3243 48.413 23.0132C49.0715 22.435 49.8077 21.7768 50.6218 21.0387C51.4358 20.2882 52.2858 19.5009 53.1717 18.6766C54.0696 17.8401 54.9734 16.9789 55.8833 16.0931C56.8051 15.2074 57.691 14.3278 58.541 13.4543C59.4029 12.5685 60.211 11.7135 60.9652 10.8893C61.7194 10.0527 62.3779 9.27768 62.9405 8.56415C63.5032 7.85062 63.9461 7.2109 64.2694 6.64499C64.5926 6.07909 64.7542 5.61775 64.7542 5.26098C64.7542 5.08875 64.6704 5.00264 64.5028 5.00264C64.2634 5.00264 63.9641 5.12566 63.6049 5.3717C63.2458 5.60545 62.8507 5.91301 62.4198 6.29438C62.0008 6.66344 61.5638 7.08172 61.1089 7.54921C60.6539 8.00439 60.217 8.44728 59.798 8.87786Z" fill="#222222"/>
<path d="M71.578 11.2768C70.8597 12.0518 70.2132 12.7469 69.6386 13.362C69.064 13.9772 68.4953 14.5738 67.9327 15.152C67.37 15.7179 66.7834 16.3023 66.1728 16.9051C65.5623 17.4956 64.862 18.1599 64.0718 18.8981C63.2817 19.6239 62.3659 20.4543 61.3244 21.3893C60.2948 22.3243 59.0797 23.4192 57.679 24.674C57.5473 25.0062 57.4456 25.3137 57.3737 25.5967C57.3139 25.8673 57.284 26.1134 57.284 26.3348C57.284 26.507 57.3318 26.6547 57.4276 26.7777C57.5234 26.8884 57.6431 26.9807 57.7868 27.0545C57.9424 27.1283 58.11 27.1837 58.2896 27.2206C58.4811 27.2452 58.6607 27.2575 58.8283 27.2575C59.1515 27.2575 59.5286 27.2206 59.9596 27.1467C60.4025 27.0729 60.9173 26.9438 61.5039 26.7592C62.1025 26.5624 62.7909 26.304 63.569 25.9842C64.3591 25.6643 65.269 25.2522 66.2985 24.7478L66.4781 25.1907C65.4007 25.7197 64.431 26.1687 63.569 26.5378C62.7071 26.9069 61.9229 27.2144 61.2166 27.4605C60.5223 27.6942 59.8878 27.8664 59.3131 27.9772C58.7505 28.0879 58.2297 28.1432 57.7508 28.1432C57.26 28.1432 56.853 28.094 56.5297 27.9956C56.2185 27.8972 55.9671 27.768 55.7755 27.6081C55.596 27.4359 55.4703 27.2329 55.3984 26.9991C55.3146 26.7654 55.2727 26.507 55.2727 26.2241C55.2727 25.6459 55.4463 24.9385 55.7935 24.1019C56.1526 23.2654 56.6255 22.355 57.2121 21.3708C57.8107 20.3866 58.4991 19.3533 59.2772 18.2706C60.0554 17.1757 60.8694 16.087 61.7194 15.0044C62.5814 13.9218 63.4493 12.8638 64.3232 11.8304C65.2091 10.797 66.0471 9.83743 66.8373 8.95167C67.0767 8.68102 67.3939 8.34886 67.789 7.95518C68.1841 7.56151 68.621 7.14938 69.0999 6.7188C69.5788 6.27592 70.0816 5.83919 70.6083 5.40861C71.147 4.97803 71.6738 4.59051 72.1886 4.24605C72.7153 3.90158 73.2121 3.62478 73.679 3.41564C74.1579 3.1942 74.5829 3.08348 74.954 3.08348C75.4448 3.08348 75.786 3.2065 75.9776 3.45255C76.1811 3.69859 76.2828 4.01845 76.2828 4.41213C76.2828 4.71968 76.1871 5.07645 75.9955 5.48243C75.804 5.8884 75.5586 6.31898 75.2593 6.77417C74.96 7.22935 74.6248 7.69069 74.2537 8.15817C73.8945 8.62566 73.5413 9.06239 73.1942 9.46837C72.847 9.87434 72.5238 10.2373 72.2245 10.5571C71.9371 10.877 71.7217 11.1169 71.578 11.2768ZM69.89 8.87786C69.2555 9.52988 68.5851 10.2373 67.8788 11C67.1725 11.7627 66.4602 12.5562 65.7419 13.3805C65.0355 14.1924 64.3292 15.0228 63.6229 15.8717C62.9285 16.7206 62.2641 17.5633 61.6296 18.3998C61.0071 19.2241 60.4265 20.0299 59.8878 20.8172C59.349 21.5923 58.8881 22.3243 58.5051 23.0132C59.1635 22.435 59.8997 21.7768 60.7138 21.0387C61.5279 20.2882 62.3779 19.5009 63.2638 18.6766C64.1616 17.8401 65.0655 16.9789 65.9753 16.0931C66.8971 15.2074 67.783 14.3278 68.633 13.4543C69.4949 12.5685 70.303 11.7135 71.0572 10.8893C71.8115 10.0527 72.4699 9.27768 73.0326 8.56415C73.5952 7.85062 74.0382 7.2109 74.3614 6.64499C74.6846 6.07909 74.8462 5.61775 74.8462 5.26098C74.8462 5.08875 74.7624 5.00264 74.5948 5.00264C74.3554 5.00264 74.0561 5.12566 73.697 5.3717C73.3378 5.60545 72.9428 5.91301 72.5118 6.29438C72.0928 6.66344 71.6558 7.08172 71.2009 7.54921C70.746 8.00439 70.309 8.44728 69.89 8.87786Z" fill="#222222"/>
<path d="M79.1919 12.3471C79.1919 12.5562 79.1381 12.7531 79.0303 12.9376C78.9226 13.1221 78.7789 13.2821 78.5993 13.4174C78.4317 13.5527 78.2342 13.6634 78.0067 13.7496C77.7793 13.8234 77.5518 13.8603 77.3244 13.8603C77.1568 13.8603 76.9892 13.8418 76.8216 13.8049C76.6659 13.768 76.5163 13.7004 76.3726 13.6019C76.2409 13.5035 76.1332 13.3743 76.0494 13.2144C75.9656 13.0422 75.9237 12.8269 75.9237 12.5685C75.9237 12.3471 75.9835 12.1564 76.1033 11.9965C76.223 11.8366 76.3726 11.7074 76.5522 11.609C76.7318 11.5105 76.9353 11.4367 77.1627 11.3875C77.3902 11.3383 77.6117 11.3137 77.8272 11.3137C78.1863 11.3137 78.4856 11.3998 78.725 11.5721C78.9764 11.732 79.1321 11.9903 79.1919 12.3471ZM68.5612 25.1907C68.3816 25.4121 68.2379 25.6397 68.1302 25.8735C68.0344 26.0949 67.9865 26.2733 67.9865 26.4086C67.9865 26.7285 68.0823 26.9315 68.2738 27.0176C68.4774 27.1037 68.7527 27.1467 69.0999 27.1467C69.4231 27.1467 69.8182 27.1221 70.2851 27.0729C70.7639 27.0114 71.3146 26.8946 71.9371 26.7223C72.5716 26.5501 73.284 26.3102 74.0741 26.0026C74.8762 25.6828 75.7681 25.2645 76.7497 24.7478L76.9293 25.1907C76.0075 25.7566 75.0917 26.2302 74.1818 26.6116C73.284 26.993 72.416 27.3005 71.578 27.5343C70.752 27.768 69.9738 27.9341 69.2436 28.0325C68.5133 28.1309 67.8668 28.1801 67.3042 28.1801C66.6577 28.1801 66.1848 28.0202 65.8855 27.7004C65.5862 27.3682 65.4366 26.9253 65.4366 26.3717C65.4366 26.0764 65.5324 25.7443 65.7239 25.3752C65.9155 24.9938 66.2267 24.5141 66.6577 23.9359C67.1126 23.3453 67.5915 22.7671 68.0943 22.2012C68.5971 21.6353 69.0999 21.0448 69.6027 20.4297C69.9379 20.0237 70.2851 19.6239 70.6442 19.2302C71.0034 18.8243 71.3446 18.4613 71.6678 18.1415C71.991 17.8216 72.2843 17.5633 72.5477 17.3664C72.8111 17.1696 73.0146 17.0712 73.1582 17.0712C73.254 17.0712 73.3857 17.0896 73.5533 17.1265C73.7209 17.1634 73.8825 17.2188 74.0382 17.2926C74.2058 17.3541 74.3434 17.4402 74.4512 17.551C74.5709 17.6494 74.6308 17.7601 74.6308 17.8831C74.6308 18.0185 74.541 18.1907 74.3614 18.3998C74.1938 18.609 73.9843 18.855 73.7329 19.138L70.752 22.6072C70.6682 22.6933 70.5425 22.8286 70.3749 23.0132C70.2192 23.1854 70.0397 23.3946 69.8361 23.6406C69.6446 23.8743 69.4351 24.1265 69.2076 24.3972C68.9802 24.6678 68.7647 24.9323 68.5612 25.1907Z" fill="#222222"/>
<path d="M88.5297 22.9394C87.9551 23.6037 87.4703 24.2373 87.0752 24.8401C86.6801 25.4306 86.4826 25.9411 86.4826 26.3717C86.4826 26.7039 86.5963 26.9438 86.8238 27.0914C87.0632 27.2267 87.3565 27.2944 87.7037 27.2944C88.0269 27.2944 88.404 27.2575 88.835 27.1837C89.278 27.1098 89.7927 26.9807 90.3794 26.7961C90.9779 26.5993 91.6663 26.3409 92.4445 26.0211C93.2346 25.7012 94.1444 25.2891 95.174 24.7847L95.3535 25.2276C94.2761 25.7566 93.3064 26.2056 92.4445 26.5747C91.5825 26.9438 90.7984 27.2513 90.092 27.4974C89.3977 27.7311 88.7632 27.9033 88.1886 28.0141C87.6259 28.1248 87.1051 28.1801 86.6263 28.1801C86.327 28.1801 86.0217 28.1432 85.7104 28.0694C85.3992 27.9833 85.1119 27.8603 84.8485 27.7004C84.5971 27.5281 84.3876 27.3251 84.22 27.0914C84.0524 26.8576 83.9686 26.5808 83.9686 26.261C83.9686 26.1134 83.9865 25.9596 84.0225 25.7996C84.0584 25.6397 84.1242 25.4736 84.22 25.3014C83.2263 26.2979 82.2746 27.0299 81.3648 27.4974C80.4549 27.9525 79.6109 28.1801 78.8328 28.1801C78.2342 28.1801 77.7494 28.1002 77.3782 27.9402C77.0191 27.768 76.7318 27.5527 76.5163 27.2944C76.3128 27.0237 76.1751 26.7223 76.1033 26.3902C76.0314 26.058 75.9955 25.7197 75.9955 25.3752C75.9955 24.797 76.1272 24.1942 76.3906 23.5668C76.654 22.9394 77.0071 22.3181 77.4501 21.703C77.905 21.0879 78.4257 20.5035 79.0124 19.9499C79.6109 19.384 80.2394 18.8919 80.8979 18.4736C81.5563 18.0431 82.2207 17.7047 82.8911 17.4587C83.5615 17.2004 84.208 17.0712 84.8305 17.0712C85.2256 17.0712 85.5967 17.1081 85.9439 17.1819C86.2911 17.2557 86.5904 17.3726 86.8418 17.5325C87.0932 17.6801 87.2907 17.8831 87.4343 18.1415C87.59 18.3875 87.6678 18.6828 87.6678 19.0272C87.6678 19.4209 87.5601 19.8761 87.3446 20.3928L86.734 20.688C86.8058 20.3928 86.8418 20.1098 86.8418 19.8392C86.8418 19.6424 86.8178 19.4517 86.7699 19.2671C86.734 19.0703 86.6682 18.8981 86.5724 18.7504C86.4766 18.6028 86.3449 18.4859 86.1773 18.3998C86.0217 18.3014 85.8242 18.2522 85.5847 18.2522C85.07 18.2522 84.5432 18.3814 84.0045 18.6397C83.4658 18.8858 82.939 19.2179 82.4242 19.6362C81.9214 20.0422 81.4426 20.5035 80.9877 21.0202C80.5447 21.5246 80.1556 22.0413 79.8204 22.5703C79.4852 23.0993 79.2159 23.6098 79.0124 24.1019C78.8208 24.594 78.725 25.0185 78.725 25.3752C78.725 25.8796 78.8388 26.2118 79.0662 26.3717C79.2937 26.5193 79.6588 26.5931 80.1616 26.5931C80.7602 26.5931 81.3827 26.4025 82.0292 26.0211C82.6757 25.6397 83.358 25.1169 84.0763 24.4525C84.3996 24.1327 84.7108 23.8251 85.0101 23.5299C85.3214 23.2346 85.6566 22.8656 86.0157 22.4227C86.2312 22.152 86.4886 21.8322 86.7879 21.4631C87.0991 21.094 87.4224 20.7127 87.7576 20.319C88.1048 19.913 88.4519 19.5193 88.7991 19.138C89.1583 18.7566 89.4935 18.4121 89.8047 18.1046C90.128 17.797 90.4153 17.551 90.6667 17.3664C90.9181 17.1696 91.1156 17.0712 91.2593 17.0712C91.355 17.0712 91.4867 17.0896 91.6543 17.1265C91.8219 17.1634 91.9835 17.2188 92.1392 17.2926C92.3068 17.3541 92.4445 17.4402 92.5522 17.551C92.6719 17.6494 92.7318 17.7601 92.7318 17.8831C92.7318 18.0185 92.642 18.1907 92.4624 18.3998C92.2948 18.609 92.0853 18.855 91.8339 19.138L88.5297 22.9394Z" fill="#222222"/>
<path d="M104.296 25.2645C103.937 25.6951 103.584 26.1072 103.237 26.5009C102.902 26.8822 102.56 27.2575 102.213 27.6265C103.674 26.9376 105.182 26.2979 106.739 25.7074C108.295 25.1046 109.911 24.5633 111.587 24.0835L111.767 24.5264C111.132 24.6986 110.414 24.9262 109.612 25.2091C108.81 25.4921 107.954 25.8181 107.044 26.1872C106.146 26.5562 105.2 26.9622 104.207 27.4051C103.225 27.848 102.225 28.3155 101.208 28.8076C99.0168 31.2926 97.1493 33.4578 95.6049 35.3032C94.0606 37.1485 92.8036 38.6002 91.8339 39.6582C91.4867 40.0272 91.1216 40.384 90.7385 40.7285C90.3434 41.0729 89.9244 41.3743 89.4815 41.6327C89.0385 41.891 88.5776 42.1002 88.0988 42.2601C87.6079 42.42 87.1051 42.5 86.5904 42.5C86.3509 42.5 86.1175 42.4692 85.89 42.4077C85.6626 42.3585 85.459 42.2663 85.2795 42.1309C85.0999 42.0079 84.9562 41.8418 84.8485 41.6327C84.7407 41.4359 84.6869 41.196 84.6869 40.913C84.6869 40.5685 84.8126 40.1503 85.064 39.6582C85.3154 39.1784 85.6925 38.6494 86.1953 38.0712C86.6861 37.5053 87.3027 36.9025 88.0449 36.2627C88.7752 35.6353 89.6311 34.9956 90.6128 34.3436C91.6783 33.6177 92.7856 32.8919 93.9349 32.1661C95.0962 31.4402 96.3113 30.7267 97.5803 30.0255C98.0112 29.4719 98.4362 28.9244 98.8552 28.3831C99.2862 27.8541 99.7112 27.3313 100.13 26.8146C99.4837 27.2821 98.8552 27.6204 98.2447 27.8295C97.6461 28.0387 97.0774 28.1432 96.5387 28.1432C95.9401 28.1432 95.4553 28.0633 95.0842 27.9033C94.725 27.7311 94.4377 27.5158 94.2222 27.2575C94.0187 26.9868 93.881 26.6854 93.8092 26.3533C93.7374 26.0211 93.7015 25.6828 93.7015 25.3383C93.7015 24.7724 93.8332 24.1757 94.0965 23.5483C94.3599 22.9086 94.7131 22.2812 95.156 21.6661C95.6109 21.051 96.1317 20.4666 96.7183 19.913C97.3169 19.3471 97.9454 18.855 98.6038 18.4367C99.2623 18.0062 99.9267 17.6678 100.597 17.4218C101.267 17.1634 101.914 17.0343 102.536 17.0343C102.932 17.0343 103.303 17.0712 103.65 17.145C103.997 17.2188 104.296 17.3357 104.548 17.4956C104.799 17.6432 104.997 17.8462 105.14 18.1046C105.296 18.3506 105.374 18.6459 105.374 18.9903C105.374 19.384 105.266 19.8392 105.051 20.3559L104.44 20.6511C104.512 20.3559 104.548 20.0729 104.548 19.8023C104.548 19.6054 104.524 19.4148 104.476 19.2302C104.44 19.0334 104.374 18.8612 104.278 18.7135C104.183 18.5659 104.051 18.449 103.883 18.3629C103.728 18.2645 103.53 18.2153 103.291 18.2153C102.776 18.2153 102.249 18.3445 101.71 18.6028C101.172 18.8489 100.645 19.181 100.13 19.5993C99.6274 20.0053 99.1485 20.4666 98.6936 20.9833C98.2507 21.4877 97.8616 22.0044 97.5264 22.5334C97.1912 23.0624 96.9218 23.5729 96.7183 24.065C96.5268 24.5571 96.431 24.9815 96.431 25.3383C96.431 25.8427 96.5447 26.1749 96.7722 26.3348C96.9996 26.4824 97.3648 26.5562 97.8676 26.5562C98.4661 26.5562 99.0827 26.3656 99.7172 25.9842C100.352 25.5905 101.04 25.0677 101.782 24.4156C101.95 24.268 102.123 24.1081 102.303 23.9359C102.495 23.7513 102.692 23.5545 102.896 23.3453C103.027 23.1731 103.159 23.007 103.291 22.8471C103.422 22.6872 103.554 22.5334 103.686 22.3858C103.901 22.1151 104.159 21.7953 104.458 21.4262C104.769 21.0571 105.092 20.6757 105.428 20.2821C105.775 19.8761 106.122 19.4824 106.469 19.1011C106.828 18.7197 107.163 18.3752 107.475 18.0677C107.798 17.7601 108.085 17.5141 108.337 17.3295C108.588 17.1327 108.786 17.0343 108.929 17.0343C109.025 17.0343 109.157 17.0527 109.324 17.0896C109.492 17.1265 109.654 17.1819 109.809 17.2557C109.977 17.3172 110.114 17.4033 110.222 17.5141C110.342 17.6125 110.402 17.7232 110.402 17.8462C110.402 17.9815 110.312 18.1538 110.132 18.3629C109.965 18.5721 109.755 18.8181 109.504 19.1011L106.523 22.5703C106.439 22.6564 106.314 22.7979 106.146 22.9947C105.978 23.1793 105.787 23.3946 105.571 23.6406C105.368 23.8866 105.152 24.1511 104.925 24.4341C104.697 24.717 104.488 24.9938 104.296 25.2645ZM89.6072 39.5475C90.0621 39.08 90.5649 38.5387 91.1156 37.9235C91.6543 37.3084 92.229 36.638 92.8395 35.9121C93.4381 35.1986 94.0546 34.442 94.6891 33.6424C95.3356 32.855 95.988 32.0431 96.6465 31.2065C95.5451 31.8216 94.4796 32.4552 93.4501 33.1072C92.4205 33.7592 91.4628 34.4051 90.5769 35.0448C89.679 35.6968 88.8709 36.3366 88.1526 36.964C87.4343 37.6037 86.8418 38.2188 86.3749 38.8093C86.1713 39.0554 85.9978 39.326 85.8541 39.6213C85.6985 39.9288 85.6207 40.2241 85.6207 40.507C85.6207 40.7531 85.7045 40.9561 85.8721 41.116C86.0277 41.2759 86.315 41.3559 86.734 41.3559C86.9256 41.3559 87.147 41.3005 87.3984 41.1898C87.6379 41.0914 87.8833 40.9561 88.1347 40.7838C88.3861 40.6239 88.6375 40.4332 88.8889 40.2118C89.1403 40.0026 89.3797 39.7812 89.6072 39.5475Z" fill="#222222"/>
<path d="M123.008 25.1907C121.476 25.9165 120.195 26.4824 119.165 26.8884C118.135 27.2944 117.256 27.6019 116.525 27.8111C115.807 28.0079 115.184 28.1309 114.658 28.1801C114.131 28.2293 113.598 28.254 113.059 28.254C112.64 28.254 112.239 28.1986 111.856 28.0879C111.485 27.9772 111.156 27.8049 110.869 27.5712C110.581 27.3374 110.354 27.036 110.186 26.667C110.019 26.2979 109.935 25.855 109.935 25.3383C109.935 24.7478 110.055 24.1388 110.294 23.5114C110.545 22.8717 110.887 22.2504 111.318 21.6476C111.749 21.0325 112.251 20.4543 112.826 19.913C113.413 19.3717 114.047 18.8981 114.73 18.4921C115.412 18.0738 116.124 17.7478 116.866 17.5141C117.621 17.268 118.375 17.145 119.129 17.145C119.392 17.145 119.704 17.1696 120.063 17.2188C120.422 17.268 120.763 17.3664 121.086 17.5141C121.41 17.6494 121.685 17.8401 121.912 18.0861C122.14 18.3322 122.254 18.6459 122.254 19.0272C122.254 19.3717 122.098 19.7285 121.787 20.0975C121.476 20.4666 121.056 20.8418 120.53 21.2232C120.015 21.5923 119.416 21.9613 118.734 22.3304C118.052 22.6995 117.345 23.0562 116.615 23.4007C115.897 23.7329 115.172 24.0466 114.442 24.3418C113.712 24.6371 113.036 24.8954 112.413 25.1169C112.389 25.2153 112.377 25.3137 112.377 25.4121C112.377 25.5105 112.377 25.609 112.377 25.7074C112.377 26.1749 112.527 26.5624 112.826 26.8699C113.125 27.1775 113.538 27.3313 114.065 27.3313C114.532 27.3313 114.993 27.3128 115.448 27.2759C115.903 27.239 116.447 27.1406 117.082 26.9807C117.716 26.8084 118.489 26.5501 119.398 26.2056C120.308 25.8489 121.452 25.3629 122.828 24.7478L123.008 25.1907ZM118.878 18.2891C118.566 18.2891 118.219 18.3814 117.836 18.5659C117.453 18.7381 117.052 18.978 116.633 19.2856C116.214 19.5808 115.795 19.9315 115.376 20.3374C114.969 20.7434 114.58 21.1801 114.209 21.6476C113.85 22.1028 113.526 22.5765 113.239 23.0685C112.952 23.5483 112.736 24.022 112.593 24.4895C113.119 24.2926 113.664 24.0773 114.227 23.8436C114.801 23.6098 115.358 23.3638 115.897 23.1054C116.447 22.8471 116.968 22.5765 117.459 22.2935C117.95 21.9982 118.381 21.6907 118.752 21.3708C119.123 21.051 119.416 20.725 119.632 20.3928C119.847 20.0483 119.955 19.6916 119.955 19.3225C119.955 19.0272 119.877 18.7812 119.722 18.5844C119.578 18.3875 119.297 18.2891 118.878 18.2891Z" fill="#222222"/>
<path d="M128 26.6301C128 26.8392 127.946 27.036 127.838 27.2206C127.731 27.4051 127.587 27.565 127.407 27.7004C127.24 27.8357 127.042 27.9464 126.815 28.0325C126.587 28.1063 126.36 28.1432 126.132 28.1432C125.965 28.1432 125.797 28.1248 125.63 28.0879C125.474 28.051 125.324 27.9833 125.181 27.8849C125.049 27.7865 124.941 27.6573 124.857 27.4974C124.774 27.3251 124.732 27.1098 124.732 26.8515C124.732 26.6301 124.792 26.4394 124.911 26.2794C125.031 26.1195 125.181 25.9903 125.36 25.8919C125.54 25.7935 125.743 25.7197 125.971 25.6705C126.198 25.6213 126.42 25.5967 126.635 25.5967C126.994 25.5967 127.294 25.6828 127.533 25.855C127.785 26.0149 127.94 26.2733 128 26.6301Z" fill="#222222"/>
</g>
</svg>
