<svg width="65" height="33" viewBox="0 0 65 33" fill="none" xmlns="http://www.w3.org/2000/svg">
<g id="Logo 3" opacity="0.25">
<path d="M5.84046 30.6043C4.9168 30.6043 4.45497 30.1398 4.45497 29.2109C4.45497 28.2495 5.31041 27.5204 7.02127 27.0235C11.5976 25.7273 14.8671 24.1341 16.8299 22.2438C18.9711 20.1699 20.0417 17.3128 20.0417 13.6727C20.0417 11.7068 19.8633 10.1621 19.5064 9.03873C19.16 7.91536 18.7874 7.01882 18.3886 6.34911C18.0002 5.66861 17.5174 5.07992 16.9401 4.58304C15.712 3.54608 14.1586 3.0276 12.2798 3.0276C8.61668 3.0276 6.24981 4.94489 5.17921 8.77949C4.82234 10.0865 4.6439 11.6365 4.6439 13.4296C4.6439 17.6423 5.70401 20.4075 7.82422 21.7253C8.33853 22.0494 8.94731 22.2654 9.65055 22.3734C9.87097 22.4382 10.0337 22.5949 10.1386 22.8433C10.3275 23.2862 10.359 23.5778 10.2331 23.7182C9.97068 24.0099 9.43013 24.1449 8.61143 24.1233C7.80323 24.0909 7.04226 23.9505 6.32853 23.702C5.61479 23.4536 4.95879 23.1079 4.36051 22.6651C3.76223 22.2222 3.23218 21.7037 2.77035 21.1096C2.30852 20.5155 1.91492 19.8566 1.58954 19.1329C0.928284 17.6639 0.597656 16.0922 0.597656 14.418C0.597656 12.7437 0.765594 11.2585 1.10147 9.96228C1.44784 8.65527 1.91492 7.49409 2.5027 6.47873C3.10098 5.45257 3.79897 4.56684 4.59667 3.82152C5.40487 3.0654 6.2708 2.4443 7.19446 1.95823C9.01028 0.986076 10.8209 0.5 12.6262 0.5C14.4315 0.5 16.0007 0.775443 17.3337 1.32633C18.6772 1.86641 19.8423 2.64954 20.8289 3.6757C22.9701 5.89004 24.0407 8.8173 24.0407 12.4575C24.0407 17.7503 22.1304 21.7793 18.3098 24.5446C16.7249 25.6787 14.8409 26.5861 12.6577 27.2666L14.1534 27.8823C16.0532 28.6384 17.5121 29.0165 18.5303 29.0165C20.9339 29.0165 22.6027 28.4116 23.5369 27.2018C23.8938 27.1802 24.1614 27.299 24.3398 27.5582C24.5183 27.8283 24.6075 28.1793 24.6075 28.6114C24.6075 29.0435 24.4658 29.5025 24.1824 29.9886C23.899 30.4855 23.5002 30.9176 22.9858 31.2848C21.8733 32.0949 20.4878 32.5 18.8294 32.5C17.7798 32.5 16.7512 32.3002 15.7435 31.9005C14.7359 31.5116 13.9435 31.1768 13.3662 30.896L11.6658 30.1344C10.4168 29.5835 9.5141 29.3081 8.9578 29.3081C8.41201 29.3081 7.98167 29.3459 7.66678 29.4215C7.3519 29.4971 7.08425 29.5943 6.86383 29.7132C6.58044 29.8644 6.23931 30.1614 5.84046 30.6043Z" fill="#222222"/>
<path d="M33.5502 25.7759C33.3088 25.6895 32.7892 25.6463 31.9915 25.6463H25.4262C24.8804 25.6463 24.4396 25.5599 24.1037 25.3871C23.7783 25.2035 23.6156 24.874 23.6156 24.3987C23.6156 24.0639 23.6996 23.7884 23.8675 23.5724C24.2664 23.6804 24.639 23.7344 24.9854 23.7344C25.3317 23.7344 25.5994 23.6966 25.7883 23.621C25.9772 23.5454 26.1399 23.4104 26.2764 23.216C26.5703 22.8163 26.7277 22.1412 26.7487 21.1906V4.45342C26.7172 3.6973 26.4758 3.21662 26.0245 3.01139C25.888 2.94658 25.6991 2.88717 25.4577 2.83316L24.702 2.67114C24.1772 2.54152 23.857 2.38489 23.7416 2.20127C23.6261 2.00684 23.5684 1.81241 23.5684 1.61797C23.5684 1.20751 23.6523 0.894262 23.8203 0.678228C24.0617 0.764641 24.5813 0.807848 25.379 0.807848H31.9443C32.4901 0.807848 32.9257 0.899662 33.251 1.08329C33.5764 1.25612 33.7391 1.58017 33.7391 2.05544C33.7391 2.4227 33.6604 2.69814 33.5029 2.88177C33.1041 2.77376 32.721 2.71975 32.3536 2.71975C31.9968 2.71975 31.7134 2.76295 31.5034 2.84937C31.304 2.92498 31.1256 3.06 30.9681 3.25443C30.6533 3.66489 30.4853 4.34 30.4643 5.27975V22.017C30.4853 22.5462 30.585 22.9027 30.7635 23.0863C31.0259 23.3348 31.346 23.5022 31.7239 23.5886C32.1017 23.6642 32.4114 23.7344 32.6528 23.7992C32.9047 23.8532 33.1146 23.9235 33.2825 24.0099C33.6184 24.1827 33.7863 24.4743 33.7863 24.8848C33.7863 25.2845 33.7076 25.5815 33.5502 25.7759ZM46.5863 2.83316C46.3344 2.74675 46.0563 2.70354 45.7519 2.70354C45.4475 2.70354 45.2061 2.76295 45.0277 2.88177C44.8492 2.98979 44.6551 3.14641 44.4451 3.35165C44.2352 3.54608 44.0043 3.78371 43.7524 4.06456L35.4395 12.9273C37.3603 13.4782 39.0239 14.8068 40.4304 16.9132C40.8292 17.5073 41.2018 18.0959 41.5482 18.6792L42.5086 20.3643C43.5477 22.2114 44.5081 23.1079 45.3898 23.0539C45.8201 23.0539 46.156 22.9999 46.3974 22.8919C46.6493 22.7839 46.8278 22.7299 46.9327 22.7299C47.0377 22.7299 47.1479 22.8163 47.2633 22.9891C47.3893 23.1511 47.4523 23.3402 47.4523 23.5562C47.4523 23.7722 47.3631 24.0315 47.1846 24.3339C47.0062 24.6256 46.7543 24.8902 46.4289 25.1278C45.6942 25.6787 44.8807 25.9542 43.9886 25.9542C43.1069 25.9542 42.3984 25.8354 41.8631 25.5977C41.3383 25.3601 40.8555 24.9874 40.4146 24.4797C39.9843 23.9721 39.5854 23.3996 39.2181 22.7623C38.8507 22.1142 38.4991 21.4607 38.1632 20.8018L37.1713 18.8413C36.0063 16.5621 34.7362 15.1957 33.3612 14.742C33.1513 14.6772 32.9624 14.661 32.7945 14.6934C32.6265 14.715 32.4323 14.742 32.2119 14.7744C32.086 14.7312 31.9915 14.58 31.9285 14.3208C31.8656 14.0507 31.8341 13.8347 31.8341 13.6727C31.8341 13.4998 31.897 13.354 32.023 13.2352L40.0053 4.12937C40.2677 3.83772 40.3989 3.60008 40.3989 3.41646C40.3989 3.0276 39.8059 2.75215 38.6198 2.59013C38.1055 2.52532 37.7906 2.4119 37.6751 2.24987C37.5702 2.07705 37.5177 1.88262 37.5177 1.66658C37.5177 1.25612 37.6017 0.942869 37.7696 0.726835C37.9585 0.780844 38.137 0.807848 38.3049 0.807848H44.4294C45.563 0.807848 46.2924 0.964473 46.6178 1.27772C46.7648 1.41814 46.8382 1.59097 46.8382 1.7962C46.8382 2.29308 46.7543 2.63873 46.5863 2.83316Z" fill="#222222"/>
<path d="M62.2518 18.4362C62.5352 18.1878 62.8343 18.0635 63.1492 18.0635C63.632 18.0635 63.9102 18.1338 63.9836 18.2742C64.393 19.1167 64.5977 20.5101 64.5977 22.4544C64.5977 23.8046 64.4507 24.7822 64.1568 25.3871C64.0624 25.5599 63.9626 25.6463 63.8577 25.6463H46.4761C45.2271 25.6463 44.6026 25.2629 44.6026 24.496C44.6026 24.0855 44.6865 23.7722 44.8545 23.5562C45.2113 23.6642 45.5577 23.7182 45.8936 23.7182C46.2295 23.7182 46.5181 23.6912 46.7595 23.6372C47.0009 23.5832 47.2266 23.4698 47.4365 23.297C47.9403 22.8973 48.1922 22.2222 48.1922 21.2716V4.85848C48.1922 3.91873 47.8249 3.31924 47.0902 3.06C46.8802 2.98439 46.6598 2.91958 46.4289 2.86557C46.2085 2.80076 45.9933 2.74135 45.7834 2.68734C45.584 2.62253 45.4055 2.55232 45.2481 2.47671C44.8912 2.28228 44.7128 2.01764 44.7128 1.68278C44.7128 1.23992 44.7968 0.921266 44.9647 0.726835C45.1536 0.780844 45.3426 0.807848 45.5315 0.807848H61.6378C62.6034 0.807848 63.2069 0.899662 63.4483 1.08329C63.8892 1.40734 64.1096 2.12025 64.1096 3.22203C64.1096 4.28059 64.0204 5.14473 63.8419 5.81443C63.674 6.48414 63.5533 6.8838 63.4798 7.01342C63.3749 7.20785 63.1702 7.30506 62.8658 7.30506C62.425 7.30506 62.1206 7.25105 61.9526 7.14304C61.7952 7.02422 61.7112 6.93781 61.7007 6.8838C61.5643 5.33916 61.3281 4.3562 60.9922 3.93494C60.6564 3.50287 60.2575 3.21122 59.7957 3.06C59.3444 2.89797 58.7513 2.81696 58.0166 2.81696H54.5056C53.3931 2.81696 52.7108 2.93038 52.4589 3.15722C52.2175 3.38405 52.0653 3.64869 52.0023 3.95114C51.9394 4.24278 51.9079 4.62084 51.9079 5.08532V11.9876L52.8368 12.0038C55.1564 12.0038 57.3081 11.7932 59.2919 11.3719C59.4388 11.4475 59.57 11.6635 59.6855 12.02C59.8009 12.3657 59.8587 12.7113 59.8587 13.057C59.8587 13.6403 59.7642 14.1479 59.5753 14.58C58.8825 14.6448 58.0848 14.6772 57.1822 14.6772C56.2795 14.6772 54.5214 14.526 51.9079 14.2235V21.5309C51.9079 22.341 52.1178 22.8865 52.5376 23.1673C52.8945 23.405 53.5348 23.5238 54.4584 23.5238L56.8358 23.459C59.1344 23.3726 60.6301 23.0431 61.3229 22.4706C61.7112 22.1466 61.9684 21.7199 62.0943 21.1906C62.2203 20.6614 62.2833 20.1321 62.2833 19.6028C62.2833 19.0627 62.2728 18.6738 62.2518 18.4362Z" fill="#222222"/>
</g>
</svg>
