<svg width="142" height="41" viewBox="0 0 142 41" fill="none" xmlns="http://www.w3.org/2000/svg">
<g id="Logo 4" opacity="0.25">
<path d="M0.597656 0.5H141.598V40.5H0.597656V0.5Z" fill="#222222"/>
<path d="M25.0069 26.0556H21.8421L17.8292 20.5521C17.532 20.5637 17.2901 20.5694 17.1036 20.5694C17.0278 20.5694 16.9462 20.5694 16.8588 20.5694C16.7714 20.5637 16.6811 20.5579 16.5878 20.5521V23.9722C16.5878 24.713 16.6694 25.173 16.8326 25.3524C17.0541 25.6071 17.3863 25.7344 17.8292 25.7344H18.2926V26.0556H13.2132V25.7344H13.659C14.1603 25.7344 14.5187 25.5723 14.7344 25.2483C14.8568 25.0689 14.918 24.6435 14.918 23.9722V16.3681C14.918 15.6273 14.8364 15.1672 14.6732 14.9878C14.4459 14.7332 14.1078 14.6059 13.659 14.6059H13.2132V14.2847H17.532C18.7909 14.2847 19.7176 14.3773 20.3121 14.5625C20.9125 14.7419 21.4195 15.0775 21.8333 15.5694C22.253 16.0556 22.4628 16.6372 22.4628 17.3142C22.4628 18.0376 22.2238 18.6655 21.7459 19.1979C21.2738 19.7303 20.5394 20.1065 19.5428 20.3264L21.9907 23.7031C22.5502 24.4786 23.0311 24.9936 23.4332 25.2483C23.8354 25.5029 24.3599 25.6649 25.0069 25.7344V26.0556ZM16.5878 20.0052C16.6985 20.0052 16.7947 20.0081 16.8763 20.0139C16.9579 20.0139 17.0249 20.0139 17.0774 20.0139C18.2081 20.0139 19.059 19.7708 19.6302 19.2847C20.2072 18.7986 20.4957 18.1794 20.4957 17.4271C20.4957 16.6921 20.2626 16.0961 19.7963 15.6389C19.3359 15.1759 18.7239 14.9444 17.9604 14.9444C17.6223 14.9444 17.1648 14.9994 16.5878 15.1094V20.0052Z" fill="white"/>
<path d="M31.3977 14.0156C32.9364 14.0156 34.2682 14.5972 35.393 15.7604C36.5237 16.9178 37.0891 18.3646 37.0891 20.1007C37.0891 21.8889 36.5208 23.3733 35.3843 24.5538C34.2478 25.7344 32.8723 26.3247 31.2578 26.3247C29.6259 26.3247 28.2533 25.7488 27.1401 24.5972C26.0327 23.4456 25.479 21.9554 25.479 20.1267C25.479 18.2575 26.1201 16.7326 27.4023 15.5521C28.5156 14.5278 29.8473 14.0156 31.3977 14.0156ZM31.2316 14.6493C30.1708 14.6493 29.3199 15.0399 28.6788 15.8212C27.8803 16.7934 27.481 18.217 27.481 20.092C27.481 22.0133 27.8948 23.4919 28.7225 24.5278C29.3578 25.3148 30.1971 25.7083 31.2403 25.7083C32.3535 25.7083 33.2715 25.2772 33.9942 24.4149C34.7228 23.5527 35.0871 22.1927 35.0871 20.3351C35.0871 18.3212 34.6878 16.8194 33.8893 15.8299C33.2482 15.0428 32.3623 14.6493 31.2316 14.6493Z" fill="white"/>
<path d="M45.1148 26.0556L40.5337 16.151V24.0156C40.5337 24.739 40.6124 25.1904 40.7697 25.3698C40.9854 25.6128 41.3263 25.7344 41.7926 25.7344H42.2122V26.0556H38.0858V25.7344H38.5054C39.0066 25.7344 39.3622 25.5839 39.572 25.283C39.7002 25.0978 39.7643 24.6753 39.7643 24.0156V16.3247C39.7643 15.8038 39.706 15.4277 39.5895 15.1962C39.5079 15.0284 39.3563 14.8895 39.1349 14.7795C38.9192 14.6638 38.5695 14.6059 38.0858 14.6059V14.2847H41.4429L45.7442 23.4948L49.9756 14.2847H53.3328V14.6059H52.9219C52.4148 14.6059 52.0564 14.7564 51.8465 15.0573C51.7183 15.2425 51.6542 15.6649 51.6542 16.3247V24.0156C51.6542 24.739 51.7358 25.1904 51.899 25.3698C52.1146 25.6128 52.4556 25.7344 52.9219 25.7344H53.3328V26.0556H48.2971V25.7344H48.7167C49.2238 25.7344 49.5793 25.5839 49.7833 25.283C49.9115 25.0978 49.9756 24.6753 49.9756 24.0156V16.151L45.4033 26.0556H45.1148Z" fill="white"/>
<path d="M61.9092 22.1146H57.3194L56.5151 23.9722C56.3169 24.4294 56.2178 24.7708 56.2178 24.9965C56.2178 25.1759 56.3023 25.3351 56.4714 25.474C56.6462 25.6071 57.0192 25.6939 57.5904 25.7344V26.0556H53.8573V25.7344C54.3527 25.6476 54.6733 25.5347 54.819 25.3958C55.1163 25.1181 55.4456 24.5538 55.8069 23.7031L59.9771 14.0156H60.2831L64.4096 23.8073C64.7418 24.5943 65.042 25.1065 65.3101 25.3438C65.584 25.5752 65.9629 25.7054 66.4466 25.7344V26.0556H61.7693V25.7344C62.2414 25.7112 62.5591 25.6331 62.7223 25.5C62.8913 25.3669 62.9758 25.2049 62.9758 25.0139C62.9758 24.7593 62.8593 24.3571 62.6261 23.8073L61.9092 22.1146ZM61.6644 21.4722L59.6536 16.7153L57.5904 21.4722H61.6644Z" fill="white"/>
<path d="M66.4204 14.2847H69.6376L76.8852 23.1128V16.3247C76.8852 15.6013 76.8036 15.1499 76.6404 14.9705C76.4248 14.7274 76.0838 14.6059 75.6176 14.6059H75.2067V14.2847H79.3331V14.6059H78.9135C78.4123 14.6059 78.0567 14.7564 77.8469 15.0573C77.7187 15.2425 77.6546 15.6649 77.6546 16.3247V26.2465H77.3398L69.524 16.7674V24.0156C69.524 24.739 69.6027 25.1904 69.76 25.3698C69.9815 25.6128 70.3225 25.7344 70.7829 25.7344H71.2026V26.0556H67.0761V25.7344H67.487C67.994 25.7344 68.3525 25.5839 68.5623 25.283C68.6905 25.0978 68.7547 24.6753 68.7547 24.0156V15.8299C68.4108 15.4306 68.1485 15.1672 67.9678 15.0399C67.793 14.9126 67.5336 14.794 67.1897 14.684C67.0207 14.6319 66.7643 14.6059 66.4204 14.6059V14.2847Z" fill="white"/>
<path d="M87.7435 20.5434V23.9722C87.7435 24.713 87.8251 25.173 87.9883 25.3524C88.2098 25.6071 88.5449 25.7344 88.9937 25.7344H89.4483V26.0556H84.3689V25.7344H84.8147C85.316 25.7344 85.6744 25.5723 85.8901 25.2483C86.0066 25.0689 86.0649 24.6435 86.0649 23.9722V16.3681C86.0649 15.6273 85.9862 15.1672 85.8289 14.9878C85.6016 14.7332 85.2635 14.6059 84.8147 14.6059H84.3689V14.2847H88.7139C89.7747 14.2847 90.6111 14.3947 91.223 14.6146C91.835 14.8287 92.3508 15.1933 92.7705 15.7083C93.1901 16.2234 93.3999 16.8339 93.3999 17.5399C93.3999 18.5006 93.0794 19.2818 92.4382 19.8837C91.803 20.4855 90.9025 20.7865 89.7368 20.7865C89.4512 20.7865 89.1423 20.7662 88.8101 20.7257C88.4779 20.6852 88.1223 20.6244 87.7435 20.5434ZM87.7435 20.0486C88.0524 20.1065 88.3263 20.1499 88.5653 20.1788C88.8043 20.2078 89.0082 20.2222 89.1773 20.2222C89.7834 20.2222 90.3051 19.9907 90.7422 19.5278C91.1851 19.059 91.4066 18.4543 91.4066 17.7135C91.4066 17.2043 91.3017 16.7326 91.0919 16.2986C90.8821 15.8588 90.5848 15.5318 90.2001 15.3177C89.8155 15.0978 89.3783 14.9878 88.8888 14.9878C88.5915 14.9878 88.2098 15.0428 87.7435 15.1528V20.0486Z" fill="white"/>
<path d="M100.586 22.1146H95.9965L95.1922 23.9722C94.994 24.4294 94.8949 24.7708 94.8949 24.9965C94.8949 25.1759 94.9794 25.3351 95.1484 25.474C95.3233 25.6071 95.6963 25.6939 96.2675 25.7344V26.0556H92.5344V25.7344C93.0298 25.6476 93.3504 25.5347 93.4961 25.3958C93.7933 25.1181 94.1226 24.5538 94.484 23.7031L98.6542 14.0156H98.9602L103.087 23.8073C103.419 24.5943 103.719 25.1065 103.987 25.3438C104.261 25.5752 104.64 25.7054 105.124 25.7344V26.0556H100.446V25.7344C100.919 25.7112 101.236 25.6331 101.399 25.5C101.568 25.3669 101.653 25.2049 101.653 25.0139C101.653 24.7593 101.536 24.3571 101.303 23.8073L100.586 22.1146ZM100.342 21.4722L98.3307 16.7153L96.2675 21.4722H100.342Z" fill="white"/>
<path d="M113.875 14.6059V14.2847H118.071V14.6059H117.626C117.159 14.6059 116.801 14.7998 116.55 15.1875C116.428 15.3669 116.367 15.7836 116.367 16.4375V21.2118C116.367 22.3924 116.247 23.3096 116.008 23.9635C115.775 24.6117 115.312 25.1701 114.618 25.6389C113.93 26.1019 112.992 26.3333 111.803 26.3333C110.509 26.3333 109.527 26.1105 108.857 25.6649C108.187 25.2193 107.711 24.6204 107.432 23.8681C107.245 23.353 107.152 22.3866 107.152 20.9688V16.3681C107.152 15.6447 107.05 15.1701 106.846 14.9444C106.648 14.7188 106.324 14.6059 105.876 14.6059H105.43V14.2847H110.553V14.6059H110.098C109.609 14.6059 109.259 14.7593 109.049 15.066C108.903 15.2743 108.831 15.7083 108.831 16.3681V21.4983C108.831 21.9554 108.871 22.4792 108.953 23.0694C109.04 23.6597 109.195 24.1198 109.416 24.4497C109.638 24.7795 109.955 25.0515 110.369 25.2656C110.789 25.4797 111.302 25.5868 111.908 25.5868C112.683 25.5868 113.377 25.419 113.989 25.0833C114.601 24.7477 115.017 24.3194 115.239 23.7986C115.466 23.272 115.58 22.3837 115.58 21.1337V16.3681C115.58 15.6331 115.498 15.173 115.335 14.9878C115.108 14.7332 114.77 14.6059 114.321 14.6059H113.875Z" fill="white"/>
<path d="M128.536 22.8003L128.825 22.8611L127.811 26.0556H118.631V25.7344H119.077C119.578 25.7344 119.937 25.5723 120.152 25.2483C120.275 25.0631 120.336 24.6348 120.336 23.9635V16.3681C120.336 15.6331 120.254 15.173 120.091 14.9878C119.864 14.7332 119.526 14.6059 119.077 14.6059H118.631V14.2847H123.999V14.6059C123.369 14.6001 122.926 14.658 122.67 14.7795C122.419 14.901 122.247 15.0544 122.154 15.2396C122.061 15.4248 122.014 15.8675 122.014 16.5677V23.9635C122.014 24.4439 122.061 24.7737 122.154 24.9531C122.224 25.0747 122.332 25.1644 122.478 25.2222C122.623 25.2801 123.078 25.309 123.842 25.309H124.707C125.616 25.309 126.254 25.2425 126.622 25.1094C126.989 24.9763 127.324 24.7419 127.627 24.4063C127.93 24.0648 128.233 23.5295 128.536 22.8003Z" fill="white"/>
</g>
</svg>
