<svg width="76" height="81" viewBox="0 0 76 81" fill="none" xmlns="http://www.w3.org/2000/svg">
<g id="Logo 2" opacity="0.25">
<mask id="mask0_76_653" style="mask-type:alpha" maskUnits="userSpaceOnUse" x="0" y="0" width="76" height="81">
<g id="Group">
<g id="Group_2">
<g id="Group_3">
<path id="Vector" d="M17.7908 13.8536C17.752 13.8892 17.6874 13.9473 17.6002 14.0313C17.513 14.112 17.4226 14.1992 17.329 14.2864C17.2353 14.3736 17.1449 14.4575 17.0577 14.5415C16.9705 14.6222 16.9059 14.6836 16.8672 14.7191L16.7089 14.8644C16.6702 14.8999 16.6056 14.9581 16.5184 15.042C16.4312 15.1227 16.3408 15.2099 16.2472 15.2971C16.1535 15.3843 16.0631 15.4683 15.9759 15.5522C15.8887 15.633 15.8241 15.6943 15.7854 15.7299L15.7595 15.7363L15.6465 15.5652V15.5006C15.7369 15.4198 15.8177 15.3359 15.8887 15.2519C15.9598 15.168 16.005 15.084 16.0179 15C16.0276 14.9193 16.0179 14.8321 15.9985 14.7385C15.9791 14.6448 15.9049 14.5124 15.7757 14.3413C15.7466 14.2993 15.7079 14.2476 15.6594 14.1927C15.6142 14.1378 15.5561 14.07 15.485 13.9893C15.4172 13.9085 15.33 13.8149 15.2267 13.7051C15.1234 13.5953 14.9942 13.4564 14.8424 13.2917L13.9544 12.3423L11.0125 15.0872L11.7455 15.8719C11.9296 16.0689 12.0814 16.2304 12.1976 16.3563C12.3139 16.479 12.4108 16.5824 12.4915 16.6631C12.5722 16.7438 12.6401 16.8117 12.695 16.8666C12.7531 16.9215 12.8144 16.9796 12.8823 17.0409C13.0373 17.1863 13.1632 17.2702 13.2568 17.2928C13.3505 17.3187 13.4409 17.3283 13.5184 17.3251C13.6056 17.3187 13.6896 17.2799 13.7768 17.2153C13.8639 17.1475 13.9511 17.0732 14.0416 16.9925H14.1061L14.2708 17.1217L14.2612 17.1443C14.2224 17.1798 14.1578 17.2379 14.0706 17.3219C13.9834 17.4026 13.893 17.4898 13.7994 17.577C13.7057 17.6642 13.6153 17.7482 13.5281 17.8321C13.4409 17.9128 13.3763 17.9742 13.3376 18.0097L13.1793 18.155C13.1406 18.1906 13.076 18.2487 12.9888 18.3327C12.9016 18.4134 12.8112 18.5006 12.7176 18.5878C12.6239 18.675 12.5335 18.7589 12.4463 18.8429C12.3591 18.9236 12.2945 18.985 12.2558 19.0205L12.2299 19.0269L12.1169 18.8558L12.1266 18.7848C12.2138 18.704 12.2945 18.6201 12.3623 18.5426C12.4302 18.4618 12.4721 18.3811 12.4883 18.2939C12.498 18.2132 12.4915 18.126 12.4786 18.0259C12.4624 17.9258 12.3882 17.7934 12.2558 17.6287C12.2202 17.5899 12.1783 17.5447 12.1331 17.4898C12.0878 17.4349 12.0297 17.3671 11.9587 17.2896C11.8909 17.2089 11.8037 17.1152 11.7003 17.0054C11.597 16.8956 11.4678 16.7568 11.316 16.5921L9.74985 14.9128C9.56901 14.7191 9.41723 14.5576 9.29452 14.4252C9.17181 14.2928 9.06524 14.183 8.97482 14.0894C8.8844 13.999 8.8069 13.9215 8.74231 13.8569C8.67773 13.7923 8.61314 13.7309 8.54533 13.6696C8.39678 13.5307 8.27084 13.4468 8.17396 13.4209C8.07708 13.3951 7.98666 13.3822 7.90593 13.3822C7.82197 13.3886 7.73478 13.4241 7.65082 13.4887C7.56686 13.5533 7.47967 13.6244 7.39248 13.7083L7.32143 13.7148L7.15674 13.5888L7.16643 13.5662C7.20518 13.5307 7.26976 13.4726 7.35695 13.3886C7.44414 13.3079 7.53456 13.2207 7.62821 13.1335C7.72186 13.0463 7.81228 12.9624 7.89947 12.8784C7.98666 12.7977 8.05125 12.7363 8.09 12.7008L8.24823 12.5555C8.28698 12.52 8.35157 12.4618 8.43876 12.3779C8.52595 12.2971 8.61637 12.2099 8.71002 12.1227C8.80367 12.0356 8.89409 11.9516 8.98128 11.8676C9.06847 11.7869 9.13306 11.7255 9.17181 11.69L9.19764 11.6836L9.31067 11.8547V11.9193C9.22025 12 9.13951 12.084 9.06847 12.168C8.99743 12.2519 8.95222 12.3359 8.9393 12.4198C8.92961 12.5006 8.93607 12.5878 8.95545 12.6846C8.97482 12.7815 9.04909 12.9107 9.18149 13.0754C9.24931 13.1561 9.31067 13.2336 9.36879 13.3014C9.42692 13.3693 9.49796 13.45 9.57547 13.5404C9.6562 13.6308 9.75308 13.7406 9.87256 13.8666C9.99204 13.9925 10.1438 14.1572 10.3279 14.3542L10.6734 14.7255L13.6153 11.9807L13.2762 11.6158C13.0954 11.422 12.9436 11.2605 12.8209 11.1281C12.6982 10.9957 12.5916 10.8859 12.5012 10.7923C12.4108 10.7019 12.3333 10.6244 12.2687 10.5598C12.2041 10.4952 12.1395 10.4338 12.0717 10.3725C11.9167 10.2272 11.7908 10.1432 11.6971 10.1206C11.6035 10.0948 11.513 10.0851 11.4355 10.0883C11.3516 10.0948 11.2644 10.1335 11.1772 10.1981C11.09 10.2659 11.0028 10.3402 10.9124 10.4209H10.8478L10.6831 10.2917L10.6928 10.2691C10.7315 10.2336 10.7961 10.1755 10.8833 10.0915C10.9705 10.0108 11.0609 9.92361 11.1546 9.83642C11.2482 9.74923 11.3387 9.66527 11.4258 9.58131C11.513 9.50058 11.5776 9.43922 11.6164 9.4037L11.7746 9.25838C11.8134 9.22286 11.8779 9.16473 11.9651 9.08077C12.0523 9.00004 12.1427 8.91285 12.2364 8.82566C12.33 8.73847 12.4205 8.6545 12.5077 8.57054C12.5948 8.48981 12.6594 8.42846 12.6982 8.39293L12.724 8.38647L12.837 8.55763L12.8274 8.62867C12.7402 8.7094 12.6594 8.79336 12.5916 8.87087C12.5206 8.9516 12.4818 9.03233 12.4657 9.11952C12.456 9.20025 12.4624 9.28744 12.4754 9.38755C12.4915 9.48766 12.5658 9.62006 12.6982 9.78475C12.766 9.86871 12.8274 9.94299 12.8855 10.0108C12.9436 10.0786 13.0147 10.1593 13.0986 10.2465C13.1793 10.3337 13.2827 10.4435 13.3989 10.5695C13.5184 10.6954 13.6702 10.8601 13.8543 11.0571L15.2719 12.5781C15.456 12.7751 15.6078 12.9365 15.724 13.0625C15.8403 13.1852 15.9371 13.2885 16.0146 13.3725C16.0922 13.4564 16.16 13.5243 16.2149 13.5792C16.273 13.6341 16.3343 13.6922 16.4022 13.7535C16.5572 13.8989 16.6831 13.9796 16.78 14.0022C16.8769 14.0248 16.9673 14.0345 17.048 14.0313C17.1352 14.0248 17.2192 13.9893 17.3031 13.9247C17.3871 13.8601 17.4743 13.7891 17.5615 13.7051L17.6325 13.6986L17.7972 13.8246L17.7875 13.8472L17.7908 13.8536Z" fill="url(#paint0_linear_76_653)"/>
<path id="Vector_2" d="M23.5717 2.55101C23.6621 2.51548 23.8009 2.46059 23.9882 2.38954C24.1755 2.3185 24.3628 2.24423 24.5534 2.17318C24.7439 2.09891 24.915 2.03432 25.0636 1.9762C25.2154 1.91807 25.309 1.88255 25.3445 1.86963L25.4349 1.9439L25.8354 3.10644L25.5706 3.20978L25.5124 3.18395C25.4349 3.02571 25.3671 2.90623 25.3058 2.82227C25.2444 2.73831 25.1508 2.69955 25.0151 2.69955C24.8827 2.69955 24.7019 2.74799 24.4694 2.83841C24.2369 2.92883 23.9107 3.05477 23.4877 3.21624L22.4769 3.60698L22.6126 4.02033C22.6481 4.13335 22.6804 4.23023 22.7062 4.30773C22.732 4.38524 22.7643 4.48212 22.8031 4.59191C22.8418 4.70494 22.8935 4.83734 22.9516 4.99557C23.013 5.15058 23.1583 5.5284 23.3876 6.12582C23.5975 6.04509 23.8106 5.96435 24.0205 5.88039C24.2304 5.79966 24.4242 5.72539 24.5953 5.65757C24.7665 5.58976 24.9086 5.52194 25.0184 5.4509C25.1282 5.37985 25.196 5.31204 25.2186 5.24423C25.2541 5.16672 25.2799 5.08922 25.2993 5.01818C25.3187 4.9439 25.309 4.85348 25.267 4.74692L25.2993 4.67587L25.4705 4.58545H25.5221C25.5706 4.7566 25.6126 4.90192 25.6481 5.02463C25.6836 5.14735 25.732 5.28621 25.7902 5.44121C25.8548 5.60913 25.9193 5.76414 25.9872 5.903C26.0517 6.04186 26.126 6.19363 26.2035 6.35833L26.1712 6.39708L25.9742 6.44875L25.9193 6.4326C25.8741 6.31957 25.8128 6.2227 25.7353 6.14197C25.6545 6.06123 25.577 5.99988 25.4931 5.9579C25.4349 5.93206 25.3413 5.93206 25.2121 5.9579C25.083 5.98373 24.9376 6.02894 24.7665 6.09353C24.5986 6.15811 24.408 6.23238 24.1981 6.31312C23.9882 6.39385 23.7719 6.47781 23.5555 6.56177L23.9495 7.57899C24.0464 7.83088 24.1271 8.03755 24.1852 8.19256C24.2466 8.35079 24.3015 8.48965 24.3531 8.60913C24.4048 8.73185 24.4532 8.84164 24.4985 8.93852C24.5437 9.03863 24.6018 9.15165 24.6664 9.27759C24.718 9.40999 24.8149 9.45197 24.9538 9.39708L25.8515 9.05154C26.2746 8.89008 26.6007 8.75122 26.8365 8.64143C27.0722 8.53163 27.2433 8.42183 27.3467 8.3185C27.45 8.21193 27.5081 8.09245 27.5146 7.95682C27.5211 7.82119 27.5146 7.64681 27.492 7.44013L27.5178 7.38201L27.7923 7.27544L28.1153 8.67695L28.07 8.81258C28.0345 8.82549 27.9538 8.85779 27.8278 8.90623C27.7019 8.95467 27.5598 9.00956 27.4016 9.07092C27.2433 9.13228 27.0851 9.19363 26.9269 9.25499C26.7686 9.31635 26.6427 9.36478 26.5523 9.40031L24.421 10.2238C24.3725 10.2431 24.2918 10.2754 24.1788 10.3174C24.0657 10.3594 23.9495 10.4046 23.83 10.4531C23.7105 10.4983 23.5943 10.5435 23.4812 10.5887C23.3682 10.6307 23.2875 10.663 23.239 10.6823H23.2132L23.1712 10.4789L23.2067 10.4175C23.3198 10.3755 23.4231 10.3271 23.5168 10.2787C23.6104 10.2302 23.6815 10.1689 23.7234 10.0946C23.7622 10.0236 23.7912 9.9396 23.8139 9.84272C23.8365 9.74584 23.8139 9.59406 23.7557 9.39385C23.7363 9.34541 23.717 9.28728 23.6944 9.21947C23.6718 9.15165 23.6427 9.06769 23.6104 8.96758C23.5749 8.86748 23.5329 8.74799 23.478 8.6059C23.4231 8.46382 23.3553 8.28944 23.2746 8.07953L22.4479 5.93852C22.3542 5.6931 22.2735 5.48642 22.2089 5.31527C22.1443 5.14735 22.0894 5.00203 22.041 4.88255C21.9958 4.76306 21.9538 4.66296 21.9183 4.57899C21.8827 4.49503 21.844 4.4143 21.8052 4.33357C21.718 4.1495 21.6309 4.02679 21.5469 3.96543C21.4629 3.90407 21.3822 3.86209 21.3079 3.83303C21.2272 3.8072 21.1335 3.81043 21.0302 3.83626C20.9269 3.86209 20.8203 3.89762 20.7073 3.94283L20.6395 3.92022L20.5361 3.74261L20.5523 3.72324C20.6007 3.70386 20.6815 3.67157 20.7945 3.62959C20.9075 3.58761 21.027 3.53917 21.1594 3.49073C21.2886 3.43906 21.4145 3.39062 21.5404 3.34541C21.6632 3.29697 21.7633 3.25822 21.8408 3.22916L23.5717 2.5607V2.55101Z" fill="url(#paint1_linear_76_653)"/>
<path id="Vector_3" d="M35.3345 1.07212C35.3152 0.862218 35.2764 0.7169 35.2215 0.632939C35.1666 0.552207 35.1085 0.484392 35.0471 0.432724C34.9793 0.381056 34.8921 0.351991 34.7856 0.342303C34.679 0.332616 34.566 0.329387 34.4465 0.332616L34.3884 0.287406L34.3496 0.0839613L34.3722 0.0710445C34.4239 0.0710445 34.5111 0.0678151 34.6338 0.0645858C34.7533 0.0645858 34.8792 0.058127 35.0052 0.0548978C35.1343 0.0548978 35.257 0.0484396 35.3765 0.0452103C35.496 0.0452103 35.5832 0.0387516 35.6349 0.0387516L35.848 0.0322929C35.8997 0.0322929 35.9869 0.0290635 36.1063 0.0258342C36.2258 0.0258342 36.3518 0.019376 36.4777 0.0161468C36.6036 0.0129175 36.7296 0.00968798 36.8491 0.00645871C36.9686 0.00645871 37.0557 0 37.1074 0L37.13 0.00968806L37.101 0.213133L37.0557 0.258343C36.9363 0.258343 36.82 0.271259 36.7102 0.284176C36.6004 0.297093 36.5132 0.332615 36.4454 0.387513C36.3873 0.442411 36.3292 0.513455 36.2743 0.600645C36.2194 0.687836 36.1871 0.833154 36.1774 1.0366C36.1709 1.14316 36.1677 1.24004 36.1677 1.33046C36.1677 1.42088 36.1677 1.52745 36.1677 1.64693C36.1677 1.76642 36.1742 1.91496 36.1774 2.08611C36.1806 2.2605 36.1871 2.48009 36.1935 2.75135L36.2452 4.831C36.2517 5.0958 36.2581 5.31216 36.2613 5.48654C36.2646 5.66093 36.271 5.80947 36.2775 5.93864C36.2839 6.06781 36.2936 6.1873 36.3033 6.30032C36.313 6.41335 36.3227 6.54252 36.3356 6.68461C36.3453 6.82669 36.426 6.89774 36.5778 6.89451L37.5369 6.87191C37.989 6.86222 38.3281 6.84284 38.5574 6.81701C38.7866 6.79117 38.9513 6.74919 39.0514 6.68461C39.1515 6.62325 39.2129 6.5296 39.2323 6.40366C39.2517 6.27772 39.2839 6.11302 39.3324 5.90958L39.3647 5.86437L39.6585 5.85791L39.4906 7.28848L39.4034 7.40151C39.3647 7.40151 39.2969 7.40151 39.1935 7.40797C39.0934 7.40797 38.9739 7.41442 38.8448 7.41765C38.7124 7.42088 38.5767 7.42411 38.4379 7.42734C38.299 7.43057 38.1795 7.4338 38.0827 7.43703L35.7996 7.49193C35.7479 7.49193 35.6607 7.49516 35.538 7.49838C35.4185 7.49838 35.2926 7.50484 35.1666 7.50807C35.0374 7.50807 34.9147 7.51453 34.7953 7.51776C34.6758 7.51776 34.5886 7.52422 34.5369 7.52422L34.5143 7.51453L34.5434 7.31109L34.5983 7.26588C34.7177 7.26588 34.8308 7.25296 34.9373 7.24004C35.0439 7.22713 35.1279 7.1916 35.1957 7.13671C35.2538 7.08181 35.3087 7.00431 35.3604 6.90743C35.412 6.80732 35.4443 6.66846 35.4637 6.48762C35.4702 6.43595 35.4734 6.37137 35.4766 6.30032C35.4766 6.22928 35.4766 6.13886 35.4766 6.03552C35.4766 5.92896 35.4702 5.80301 35.4669 5.65124C35.4637 5.49946 35.4573 5.31216 35.454 5.08611L35.3991 2.79333C35.3927 2.52853 35.3862 2.30893 35.383 2.1281C35.3797 1.94726 35.3733 1.79225 35.3668 1.66631C35.3604 1.53714 35.3539 1.43057 35.3475 1.34015C35.341 1.24973 35.3345 1.15931 35.3249 1.06889L35.3345 1.07212Z" fill="url(#paint2_linear_76_653)"/>
<path id="Vector_4" d="M51.0811 2.21196C51.1748 2.24102 51.3169 2.28946 51.5042 2.35082C51.6947 2.41217 51.8852 2.47676 52.079 2.54134C52.2727 2.60593 52.4471 2.66083 52.5989 2.7125C52.7539 2.76416 52.8476 2.79323 52.8831 2.80615L52.9057 2.91917L52.4794 4.07202L52.2114 3.98483L52.1823 3.92671C52.2211 3.75555 52.2469 3.61669 52.2534 3.51659C52.2598 3.41325 52.2114 3.32283 52.108 3.23887C52.0047 3.15814 51.8336 3.0774 51.5978 2.9999C51.3621 2.9224 51.0295 2.8126 50.6 2.67052L49.5698 2.33144L49.4116 2.73833C49.3664 2.84813 49.3309 2.94178 49.3018 3.01928C49.2727 3.09678 49.2372 3.19043 49.1952 3.30345C49.1533 3.41648 49.108 3.55211 49.0564 3.71034C49.0047 3.86858 48.8788 4.25286 48.6786 4.85997C48.8917 4.93101 49.108 5.00206 49.3212 5.0731C49.5343 5.14414 49.7313 5.20873 49.9057 5.26686C50.0801 5.32498 50.2351 5.3605 50.3642 5.37665C50.4934 5.3928 50.5903 5.37988 50.6484 5.34436C50.7259 5.30561 50.7937 5.26363 50.8551 5.22165C50.9164 5.17644 50.9649 5.10216 51.0004 4.99237L51.0714 4.95685L51.262 4.9956L51.2975 5.03112C51.2297 5.18935 51.1683 5.32821 51.1199 5.4477C51.0682 5.56718 51.0166 5.70281 50.9649 5.86104C50.91 6.03219 50.8615 6.19366 50.8228 6.34221C50.784 6.49075 50.7453 6.65545 50.7033 6.82983L50.6549 6.83628L50.4676 6.75232L50.4353 6.70711C50.474 6.59086 50.487 6.47784 50.4773 6.36481C50.4676 6.25179 50.445 6.15491 50.4094 6.07095C50.3804 6.01282 50.3093 5.95469 50.1963 5.89011C50.0801 5.82875 49.938 5.76739 49.7668 5.7125C49.5957 5.65437 49.4019 5.59301 49.1856 5.52197C48.9724 5.45092 48.7528 5.37988 48.53 5.30561L48.1877 6.34221C48.1037 6.59732 48.0359 6.80722 47.981 6.96869C47.9294 7.13015 47.8841 7.27224 47.8454 7.39818C47.8066 7.52412 47.7744 7.64038 47.7485 7.74694C47.7227 7.85351 47.6936 7.97622 47.6613 8.11508C47.6161 8.25071 47.6646 8.34113 47.8099 8.38957L48.7238 8.68989C49.1533 8.83198 49.4956 8.93532 49.7474 8.99667C49.9993 9.06126 50.1995 9.08386 50.3481 9.07095C50.4966 9.0548 50.6161 8.9999 50.7098 8.89656C50.8034 8.79646 50.9068 8.6576 51.0198 8.47999L51.0779 8.45092L51.3556 8.54134L50.7162 9.82983L50.5967 9.90733C50.5612 9.89441 50.4773 9.86858 50.3513 9.8266C50.2221 9.78462 50.0768 9.73618 49.9154 9.68451C49.7539 9.63284 49.5924 9.57794 49.431 9.52627C49.2695 9.47461 49.1436 9.43262 49.0499 9.40033L46.8798 8.68666C46.8282 8.67051 46.7474 8.64145 46.6344 8.60593C46.5214 8.56718 46.4019 8.52843 46.2792 8.48968C46.1565 8.45092 46.0402 8.41217 45.924 8.37342C45.8077 8.33467 45.727 8.30884 45.6786 8.29269L45.6592 8.27331L45.7561 8.08925L45.8239 8.06341C45.9369 8.10216 46.0467 8.13123 46.15 8.15383C46.2534 8.17644 46.347 8.17321 46.4277 8.14414C46.502 8.11185 46.5795 8.06664 46.657 8.00528C46.7378 7.94393 46.8153 7.81476 46.896 7.621C46.9121 7.57256 46.9347 7.5112 46.9606 7.44662C46.9864 7.3788 47.0187 7.29807 47.0542 7.19796C47.0897 7.09786 47.1317 6.97837 47.1802 6.83628C47.2286 6.6942 47.2867 6.51336 47.3578 6.30022L48.0747 4.12046C48.1586 3.86858 48.2265 3.65868 48.2846 3.48752C48.3427 3.31637 48.3879 3.16782 48.4299 3.04834C48.4687 2.92563 48.5009 2.82229 48.5268 2.7351C48.5526 2.64791 48.5752 2.56072 48.5946 2.47353C48.643 2.27654 48.6559 2.128 48.6301 2.02789C48.6043 1.92778 48.5688 1.84382 48.53 1.77278C48.4816 1.70173 48.4105 1.64361 48.3136 1.60162C48.2168 1.55642 48.1102 1.51766 47.9972 1.47891L47.9584 1.41756L47.9907 1.21411H48.0166C48.065 1.22703 48.149 1.25286 48.262 1.29161C48.375 1.33037 48.5009 1.36912 48.6333 1.41433C48.7657 1.45954 48.8949 1.50152 49.0209 1.54027C49.1468 1.58225 49.2469 1.61454 49.3276 1.64038L51.0876 2.22165L51.0811 2.21196Z" fill="url(#paint3_linear_76_653)"/>
<path id="Vector_5" d="M66.9695 12.0226L66.8242 12.1614H66.7531C66.6595 12.0807 66.5691 12.0129 66.4786 11.9515C66.3882 11.8902 66.301 11.8611 66.2235 11.8611C66.1428 11.8611 66.0588 11.8805 65.9684 11.9128C65.878 11.945 65.7585 12.0355 65.61 12.1872C65.5357 12.2615 65.4679 12.3358 65.4065 12.4004C65.3452 12.4682 65.2741 12.5457 65.1934 12.6361C65.1127 12.7265 65.0158 12.8363 64.906 12.9687C64.793 13.1011 64.6509 13.2723 64.4765 13.479L63.1945 15.0032C62.9232 15.3261 62.7004 15.5941 62.5292 15.804C62.3581 16.0139 62.2095 16.1948 62.09 16.3433C61.9706 16.4919 61.864 16.6275 61.7768 16.7502C61.6896 16.8729 61.5927 17.0086 61.4862 17.1571L61.3958 17.1248L60.8597 16.6727V16.4951L61.6702 9.27766C61.6218 9.33579 61.5734 9.39069 61.5217 9.44559C61.47 9.50049 61.4087 9.57153 61.3376 9.65549C61.2666 9.73945 61.1859 9.83633 61.0954 9.94613C61.0018 10.0559 60.8888 10.1916 60.7531 10.353L59.4162 11.945C59.3581 12.0129 59.2806 12.1065 59.1869 12.2163C59.0933 12.3293 58.9964 12.4456 58.8963 12.5715C58.7962 12.6942 58.7025 12.8137 58.6089 12.93C58.5185 13.0462 58.4442 13.1399 58.3925 13.2142C58.2827 13.3692 58.2149 13.4983 58.1923 13.6017C58.1697 13.705 58.1697 13.8019 58.1923 13.8891C58.2085 13.9633 58.2504 14.0376 58.315 14.1119C58.3796 14.1862 58.47 14.2734 58.5863 14.3702L58.5992 14.4413L58.4926 14.6189L58.4668 14.6124C58.428 14.5769 58.3635 14.5252 58.2795 14.4574C58.1955 14.3864 58.1083 14.3121 58.0147 14.2346C57.921 14.1571 57.8339 14.0828 57.7499 14.0118C57.6659 13.9407 57.6046 13.8891 57.5626 13.8568L57.3979 13.7179C57.3559 13.6856 57.2913 13.6275 57.1977 13.55C57.104 13.4725 57.0104 13.3918 56.9135 13.311C56.8166 13.2271 56.7198 13.1496 56.6293 13.0721C56.5357 12.9946 56.4711 12.9397 56.4291 12.9041L56.4194 12.8815L56.5777 12.7491H56.6487C56.7521 12.8396 56.8425 12.9074 56.9232 12.959C57.0039 13.0107 57.0879 13.0398 57.1783 13.0495C57.2429 13.0559 57.3236 13.043 57.4237 13.0107C57.5238 12.9816 57.6498 12.888 57.808 12.7362C57.8468 12.7007 57.892 12.6555 57.9404 12.6038C57.9889 12.5522 58.047 12.4843 58.1148 12.4036C58.1826 12.3229 58.2666 12.226 58.3635 12.1097C58.4603 11.9935 58.5831 11.8514 58.7284 11.677L60.2041 9.92029C60.3753 9.71685 60.5174 9.54892 60.6336 9.41007C60.7499 9.27121 60.85 9.15172 60.9307 9.05484C61.0147 8.95797 61.0825 8.87078 61.1374 8.79973C61.1923 8.72869 61.2472 8.65441 61.2989 8.58014C61.3893 8.44774 61.4506 8.32503 61.4797 8.20877C61.5088 8.09252 61.5152 7.98918 61.4991 7.90522C61.4797 7.82126 61.4377 7.74376 61.3667 7.66948C61.2956 7.59521 61.2117 7.51771 61.1148 7.43375L61.0987 7.3627L61.202 7.18832L61.2472 7.16895C61.286 7.20124 61.3441 7.25614 61.4184 7.32395C61.4926 7.395 61.5669 7.46604 61.6444 7.53708C61.7219 7.61136 61.7962 7.6824 61.8705 7.75022C61.9447 7.82126 62.0029 7.87293 62.0416 7.90522L62.3452 8.16033C62.3904 8.19909 62.455 8.25398 62.5389 8.32503C62.6229 8.39607 62.6972 8.44451 62.765 8.47035L62.7876 8.5317C62.7424 8.63181 62.6972 8.78359 62.6487 8.9838C62.6035 9.18725 62.5551 9.41652 62.5131 9.67487C62.4679 9.93321 62.4227 10.2109 62.3775 10.5048C62.3322 10.7987 62.287 11.0957 62.2483 11.3864C62.0965 12.4585 61.9964 13.353 61.948 14.0731C61.8995 14.79 61.8672 15.2551 61.8479 15.465C61.8801 15.4262 61.9157 15.3875 61.948 15.3552C61.9803 15.3229 62.0158 15.2841 62.0545 15.2389C62.0933 15.1937 62.1417 15.1356 62.1998 15.0645C62.258 14.9967 62.3355 14.9031 62.4324 14.7868L63.9114 13.0301C64.0825 12.8266 64.2246 12.6587 64.3409 12.5199C64.4571 12.381 64.554 12.2615 64.6347 12.1614C64.7155 12.0613 64.7833 11.9741 64.8382 11.9031C64.8931 11.832 64.948 11.7577 64.9996 11.6835C65.1223 11.5123 65.1934 11.3767 65.2063 11.2798C65.2192 11.1829 65.2192 11.0925 65.2063 11.015C65.1869 10.9311 65.1417 10.8503 65.0642 10.7696C64.9867 10.6921 64.9028 10.6114 64.8123 10.5339L64.8059 10.4725L64.9092 10.2981L64.9544 10.2787C64.9932 10.311 65.0513 10.3627 65.1223 10.4305C65.1934 10.4983 65.2644 10.5661 65.3387 10.6372C65.413 10.7082 65.484 10.776 65.5551 10.8439C65.6261 10.9117 65.681 10.9633 65.723 10.9956L66.1299 11.3379C66.1686 11.3702 66.2268 11.4187 66.3043 11.4833C66.3785 11.5446 66.4593 11.6092 66.5465 11.6706C66.6304 11.7319 66.7144 11.7933 66.7951 11.8482C66.8758 11.9063 66.9372 11.9483 66.9824 11.9773L66.963 12.0193L66.9695 12.0226Z" fill="url(#paint4_linear_76_653)"/>
</g>
<g id="Group_4">
<path id="Vector_6" d="M17.6997 64.043L17.5156 64.1366L17.451 64.1269C17.38 64.0301 17.3057 63.9397 17.2314 63.8589C17.1572 63.7782 17.0797 63.7265 16.9957 63.7039C16.9182 63.6878 16.8278 63.6813 16.7309 63.6878C16.634 63.6942 16.4952 63.7556 16.3143 63.8686C16.2239 63.9267 16.1432 63.9784 16.0689 64.0301C15.9946 64.0817 15.9074 64.1399 15.8073 64.2109C15.7072 64.2787 15.5877 64.3659 15.4489 64.4693C15.31 64.5726 15.1292 64.705 14.9128 64.8665L13.24 66.1065C13.0204 66.268 12.8396 66.4036 12.6911 66.5134C12.5425 66.6232 12.4166 66.7136 12.31 66.7879C12.2034 66.8622 12.113 66.9267 12.0387 66.9816C11.9645 67.0365 11.8934 67.0914 11.8256 67.1399C11.5834 67.3207 11.3218 67.4693 11.0474 67.5887C10.7696 67.7082 10.4984 67.789 10.2336 67.8309C9.96878 67.8729 9.71689 67.8665 9.48116 67.8116C9.24542 67.7567 9.03875 67.6501 8.86114 67.4886C8.8127 67.4499 8.76749 67.3982 8.72228 67.3401C8.67707 67.2787 8.63832 67.2238 8.59957 67.1754L8.57373 67.0817L8.75457 66.917H8.83207C8.8902 66.9945 8.94187 67.0656 8.98708 67.1237C9.03229 67.1851 9.08718 67.2367 9.15823 67.2787C9.25511 67.3207 9.36168 67.3498 9.47793 67.3659C9.77179 67.4111 10.1625 67.2755 10.6437 66.9623C11.1249 66.649 11.7707 66.1905 12.5845 65.5898L14.4316 64.2238C14.6448 64.0656 14.8224 63.9332 14.9677 63.8266C15.113 63.7201 15.2357 63.6264 15.3358 63.5457C15.4359 63.4649 15.5231 63.3971 15.5942 63.3422C15.6652 63.2841 15.733 63.226 15.8041 63.1679C15.9591 63.0355 16.056 62.9192 16.0947 62.8256C16.1335 62.7319 16.1561 62.6447 16.1625 62.564C16.1625 62.4768 16.1399 62.3896 16.085 62.2992C16.0301 62.2088 15.9688 62.1119 15.8977 62.015V61.944L16.0431 61.7954L16.0657 61.8083C16.0979 61.8503 16.1496 61.9214 16.2207 62.0182C16.2917 62.1151 16.366 62.2152 16.4435 62.3186C16.521 62.4219 16.5953 62.522 16.6663 62.6189C16.7373 62.7158 16.789 62.7868 16.8213 62.8288L16.9505 62.9999C16.9828 63.0419 17.0344 63.113 17.1055 63.2098C17.1765 63.3067 17.2508 63.4068 17.3283 63.5102C17.4058 63.6135 17.4801 63.7136 17.5511 63.8105C17.6222 63.9074 17.6738 63.9784 17.7061 64.0204V64.0462L17.6997 64.043Z" fill="url(#paint5_linear_76_653)"/>
<path id="Vector_7" d="M24.9754 69.9913L23.9614 75.3519C23.9097 75.5844 23.8709 75.7814 23.8451 75.9396C23.816 76.0979 23.7934 76.2335 23.7773 76.3465C23.7579 76.4596 23.745 76.5532 23.7353 76.6307C23.7256 76.7082 23.7159 76.776 23.7095 76.8309C23.6836 77.0344 23.6836 77.2023 23.7095 77.3347C23.7321 77.4671 23.7708 77.5769 23.8225 77.6641C23.8742 77.7513 23.9388 77.8223 24.0163 77.8772C24.0938 77.9321 24.1745 77.9838 24.2585 78.0322L24.2843 78.1L24.21 78.2938L24.168 78.3196C24.1228 78.2938 24.0582 78.2486 23.9711 78.184C23.8871 78.1194 23.7934 78.0613 23.6966 78.0031C23.5997 77.945 23.506 77.8901 23.4188 77.8385C23.3317 77.7868 23.2638 77.748 23.2186 77.719L22.8989 77.5285C22.8537 77.5026 22.7794 77.4574 22.6761 77.3961C22.5728 77.3347 22.463 77.2701 22.35 77.2023C22.2369 77.1345 22.1271 77.0699 22.0238 77.0085C21.9205 76.9472 21.8462 76.902 21.801 76.8761L21.7881 76.8535L21.9205 76.6953L21.9818 76.6792C22.1691 76.7889 22.3273 76.8568 22.4565 76.8729C22.5857 76.8923 22.7052 76.8083 22.815 76.6178C22.9022 76.4692 22.9764 76.2303 23.0346 75.9009C23.0927 75.5715 23.167 75.1582 23.2606 74.6641L23.3704 74.099L21.1906 72.8105L20.7482 73.1786C20.3575 73.4983 20.0313 73.7631 19.773 73.973C19.5146 74.1829 19.3403 74.3638 19.2498 74.5123C19.14 74.6996 19.1239 74.8449 19.2014 74.9515C19.2789 75.0548 19.4145 75.1614 19.6018 75.2744L19.6277 75.3422L19.5534 75.536H19.5276C19.4824 75.5069 19.4113 75.4649 19.3144 75.4068C19.2176 75.3487 19.1142 75.2873 19.0076 75.226C18.9011 75.1614 18.7977 75.1033 18.7009 75.0451C18.604 74.987 18.5329 74.945 18.4877 74.9192L18.3037 74.8094C18.2585 74.7836 18.1906 74.7416 18.1002 74.6899C18.0098 74.635 17.9162 74.5801 17.8193 74.522C17.7224 74.4639 17.6255 74.4154 17.5319 74.3734C17.4382 74.3315 17.3704 74.2959 17.3252 74.2701L17.3381 74.2249L17.4608 74.0602L17.5319 74.0505C17.6158 74.099 17.6998 74.1442 17.7805 74.1829C17.8613 74.2217 17.9549 74.2443 18.0582 74.2475C18.1616 74.2507 18.2746 74.2314 18.4005 74.1894C18.5265 74.1474 18.6783 74.0667 18.8494 73.9504C18.8882 73.931 18.9269 73.902 18.9689 73.8697C19.0109 73.8374 19.0722 73.7889 19.1594 73.7244C19.2434 73.6598 19.3564 73.5758 19.4953 73.4692C19.6341 73.3627 19.8117 73.2238 20.0313 73.0494C20.2509 72.8783 20.519 72.6652 20.8387 72.4165C21.1584 72.1678 21.5426 71.8643 21.998 71.5123C22.2176 71.3347 22.4371 71.1603 22.66 70.9924C22.8828 70.8212 23.0895 70.663 23.2832 70.5145C23.477 70.3659 23.6481 70.2367 23.7967 70.1237C23.9452 70.0107 24.055 69.9267 24.1228 69.8718L24.8688 69.9203L24.9754 69.9849V69.9913ZM21.6008 72.5005L23.4608 73.5984L24.013 70.55L21.6008 72.5005Z" fill="url(#paint6_linear_76_653)"/>
<path id="Vector_8" d="M42.207 81C42.1554 81 42.0682 81 41.9487 80.9967C41.8292 80.9967 41.7033 80.9935 41.5773 80.9903C41.4481 80.9903 41.3254 80.9871 41.2059 80.9838C41.0865 80.9838 40.9993 80.9806 40.9444 80.9806H40.7312C40.6796 80.9774 40.5924 80.9741 40.4729 80.9741C40.3534 80.9741 40.2275 80.9709 40.1015 80.9677C39.9724 80.9677 39.8497 80.9644 39.7302 80.9612C39.6107 80.9612 39.5235 80.958 39.4686 80.958L39.4363 80.9451L39.4751 80.7416L39.5203 80.6964C39.6397 80.6964 39.756 80.6964 39.8658 80.6835C39.9756 80.6738 40.0596 80.6448 40.1209 80.5931C40.1758 80.5414 40.2275 80.4736 40.2759 80.3929C40.3276 80.3121 40.3534 80.1636 40.3567 79.9537C40.3567 79.902 40.3567 79.8374 40.3567 79.7664C40.3567 79.6953 40.3567 79.6049 40.3567 79.5016C40.3567 79.395 40.3502 79.2691 40.347 79.1173C40.3405 78.9655 40.334 78.7782 40.3211 78.5522C40.2727 77.761 40.2372 77.1281 40.2113 76.6566C40.1855 76.1851 40.1629 75.817 40.1435 75.5522C40.1241 75.2874 40.1112 75.1001 40.1015 74.9871C40.0918 74.874 40.0854 74.7804 40.0789 74.7029C40.024 74.8385 39.9368 75.0452 39.8206 75.3261C39.7043 75.6071 39.5687 75.93 39.4137 76.2917C39.2619 76.6534 39.0972 77.0409 38.9261 77.4542C38.7549 77.8643 38.5838 78.2745 38.4159 78.6781C38.2479 79.0818 38.0865 79.4628 37.9347 79.8245C37.7829 80.183 37.6505 80.4897 37.5407 80.7449L37.0111 80.7352L34.8507 74.6415C34.841 74.7158 34.8346 74.7965 34.8249 74.8773C34.8152 74.9612 34.8055 75.0613 34.7991 75.1776C34.7894 75.2938 34.7765 75.4295 34.7635 75.5845C34.7506 75.7395 34.7345 75.93 34.7151 76.1561L34.5246 78.2325C34.4987 78.4876 34.4794 78.6975 34.4697 78.8654C34.46 79.0301 34.4503 79.1754 34.4406 79.2949C34.4309 79.4144 34.4245 79.5177 34.4245 79.5985C34.4245 79.6824 34.4245 79.7664 34.4212 79.8568C34.418 80.0667 34.4406 80.2153 34.4891 80.2992C34.5375 80.3832 34.5892 80.451 34.6505 80.5059C34.7086 80.5608 34.7797 80.5931 34.8572 80.606C34.9347 80.6189 35.0348 80.6254 35.1575 80.6286L35.2027 80.6738L35.235 80.8773L35.2124 80.9225C35.1607 80.9225 35.0832 80.9192 34.9799 80.9128C34.8798 80.9063 34.7732 80.9031 34.6699 80.8966C34.5633 80.8902 34.46 80.8869 34.3599 80.8805C34.2598 80.874 34.1823 80.8708 34.1274 80.8708H33.9142C33.8626 80.8676 33.7754 80.8643 33.6591 80.8643C33.5429 80.8643 33.4169 80.8611 33.2878 80.8579C33.1554 80.8579 33.0326 80.8547 32.9164 80.8514C32.8001 80.8514 32.7162 80.8482 32.6613 80.8482L32.6387 80.8353L32.6774 80.6318L32.7452 80.5866C32.8583 80.5866 32.9681 80.5866 33.0746 80.5737C33.1812 80.564 33.2716 80.535 33.3459 80.4833C33.4072 80.4316 33.4718 80.3638 33.5364 80.2831C33.601 80.2023 33.6527 80.0538 33.685 79.8439C33.6946 79.7922 33.7011 79.7309 33.7108 79.6566C33.7205 79.5856 33.7302 79.4984 33.7431 79.3918C33.756 79.2852 33.7721 79.1593 33.7883 79.0075C33.8044 78.8557 33.8238 78.6684 33.8432 78.4424L34.0402 76.1496C34.066 75.8848 34.0886 75.6652 34.1015 75.4844C34.1145 75.3035 34.1274 75.1485 34.1306 75.0226C34.1371 74.8934 34.1435 74.7868 34.1467 74.6964C34.1532 74.606 34.1564 74.5156 34.1564 74.4252C34.1597 74.2153 34.1306 74.0635 34.066 73.9763C34.0047 73.8891 33.9433 73.8213 33.8819 73.7761C33.8141 73.7212 33.7302 73.6889 33.6236 73.676C33.517 73.663 33.404 73.6566 33.2845 73.6534L33.2296 73.6082L33.2006 73.4047L33.2232 73.395C33.2748 73.395 33.362 73.395 33.4815 73.3983C33.601 73.3983 33.7269 73.4015 33.8529 73.4047C33.9821 73.4047 34.1048 73.4079 34.2242 73.4112C34.3437 73.4112 34.4309 73.4144 34.4858 73.4144L34.8798 73.4209C34.9411 73.4209 35.0251 73.4209 35.1349 73.4241C35.2447 73.4241 35.3319 73.4241 35.3997 73.4176L35.4546 73.4531C35.4611 73.55 35.4869 73.6824 35.5321 73.8439C35.5773 74.0054 35.6354 74.1894 35.7033 74.3961C35.7711 74.5995 35.8453 74.8191 35.9228 75.0484C36.0036 75.2809 36.0811 75.5102 36.1618 75.7362L36.8949 77.8385C37.0176 78.2034 37.1274 78.5102 37.2307 78.7653C37.3308 79.0204 37.4212 79.2465 37.502 79.4435C37.5246 79.4047 37.5924 79.2626 37.7022 79.0107C37.812 78.7589 37.9476 78.4488 38.1058 78.0807C38.2673 77.7093 38.4352 77.3057 38.6161 76.8633C38.7969 76.4209 38.9681 75.9881 39.136 75.5651C39.3007 75.1421 39.4428 74.7513 39.5622 74.3896C39.6817 74.028 39.756 73.7438 39.7915 73.5339L39.8497 73.4887C39.911 73.4951 39.9724 73.4984 40.0402 73.5016C40.108 73.5016 40.1726 73.508 40.2307 73.508L40.6376 73.5145C40.6893 73.5145 40.7765 73.5145 40.8959 73.5177C41.0154 73.5177 41.1414 73.521 41.2705 73.5242C41.3997 73.5242 41.5224 73.5274 41.6419 73.5307C41.7614 73.5307 41.8486 73.5339 41.9002 73.5339L41.9228 73.5468L41.8841 73.7502L41.826 73.7954C41.7065 73.7954 41.5902 73.7954 41.4804 73.8084C41.3706 73.8181 41.2867 73.8471 41.2253 73.8988C41.164 73.944 41.0994 74.0086 41.0348 74.099C40.9702 74.1894 40.9347 74.3347 40.9315 74.5382C40.9315 74.6448 40.9315 74.7416 40.9315 74.8321C40.9315 74.9225 40.9347 75.029 40.9379 75.1485C40.9379 75.268 40.9444 75.4166 40.9541 75.5909C40.9638 75.7653 40.9767 75.9881 40.9928 76.2594L41.0962 78.3423C41.1155 78.6135 41.1284 78.8331 41.1349 79.0043C41.1446 79.1754 41.1511 79.3143 41.1607 79.4273C41.1704 79.5403 41.1801 79.6372 41.1898 79.7147C41.1995 79.7955 41.2124 79.8794 41.2253 79.9698C41.2512 80.1797 41.2931 80.3283 41.3545 80.4122C41.4126 80.4962 41.474 80.564 41.5321 80.6189C41.5999 80.6738 41.6871 80.7061 41.7969 80.719C41.9067 80.7319 42.0197 80.7384 42.1424 80.7416L42.1973 80.7868L42.2264 80.9903L42.2135 81H42.207Z" fill="url(#paint7_linear_76_653)"/>
<path id="Vector_9" d="M50.4058 70.2174C50.493 70.1722 50.6254 70.1011 50.7998 70.0075C50.9774 69.9138 51.155 69.8202 51.3326 69.7233C51.5134 69.6297 51.6749 69.5425 51.817 69.4682C51.9591 69.3939 52.0495 69.3455 52.0818 69.3293L52.1787 69.3939L52.7147 70.5016L52.4661 70.634L52.4047 70.6146C52.3078 70.4661 52.2271 70.3563 52.1561 70.2788C52.085 70.2045 51.9849 70.1754 51.8557 70.1916C51.7233 70.2109 51.549 70.2755 51.3294 70.3918C51.1098 70.508 50.7998 70.6727 50.3993 70.8826L49.4402 71.3896L49.6243 71.7836C49.6727 71.8934 49.7147 71.9838 49.7503 72.0581C49.7858 72.1324 49.8278 72.2228 49.8827 72.3293C49.9343 72.4359 49.9989 72.5651 50.0796 72.7104C50.1571 72.8589 50.3477 73.2142 50.6448 73.7793C50.845 73.6727 51.0452 73.5662 51.2454 73.4628C51.4456 73.3563 51.6265 73.2626 51.7912 73.1754C51.9558 73.0882 52.085 73.0043 52.1884 72.9203C52.2885 72.8363 52.3466 72.7621 52.3627 72.691C52.3886 72.6103 52.4047 72.5296 52.4176 72.4553C52.4306 72.381 52.4079 72.2906 52.353 72.1905L52.3757 72.1162L52.5339 72.0064H52.5856C52.6534 72.1647 52.7115 72.3035 52.7632 72.423C52.8116 72.5425 52.8762 72.6716 52.9537 72.8202C53.0377 72.9784 53.1216 73.1237 53.2024 73.2562C53.2831 73.3886 53.3735 73.5274 53.4704 73.6824L53.4413 73.7244L53.2508 73.7987L53.1959 73.789C53.1378 73.6824 53.0667 73.592 52.9763 73.521C52.8891 73.4499 52.8019 73.3982 52.7147 73.3659C52.6534 73.3466 52.5597 73.3563 52.437 73.395C52.3143 73.4338 52.1722 73.4951 52.0107 73.5823C51.8525 73.6663 51.6717 73.7631 51.4715 73.8665C51.2712 73.973 51.0678 74.0796 50.8611 74.1894L51.3714 75.155C51.4973 75.3939 51.6006 75.5877 51.6781 75.7362C51.7556 75.8848 51.8299 76.0172 51.8945 76.1302C51.9591 76.2432 52.0204 76.3466 52.0786 76.4402C52.1367 76.5339 52.2045 76.6372 52.2852 76.7567C52.353 76.8826 52.4532 76.9117 52.5856 76.8407L53.4349 76.3918C53.8353 76.1786 54.1453 76.0043 54.3649 75.8686C54.5845 75.733 54.7427 75.6038 54.8331 75.4876C54.9236 75.3713 54.9655 75.2454 54.9591 75.1065C54.9494 74.9709 54.9236 74.7997 54.8751 74.5963L54.8945 74.5349L55.1528 74.3961L55.6405 75.7492L55.6114 75.8912C55.5791 75.9074 55.5016 75.9494 55.3821 76.014C55.2626 76.0785 55.127 76.1496 54.9785 76.2271C54.8299 76.3078 54.6781 76.3853 54.5296 76.4661C54.381 76.5468 54.2616 76.6081 54.1744 76.6533L52.1561 77.7222C52.1109 77.7481 52.0334 77.7868 51.9268 77.845C51.8202 77.8999 51.7104 77.958 51.5974 78.0193C51.4844 78.0807 51.3746 78.1388 51.268 78.1937C51.1614 78.2486 51.0839 78.2906 51.0387 78.3164H51.0129L50.9483 78.1227L50.9774 78.0549C51.0839 78 51.1808 77.9418 51.268 77.8805C51.3552 77.8224 51.4166 77.7513 51.4521 77.6738C51.4811 77.5995 51.5005 77.5123 51.5102 77.4122C51.5199 77.3121 51.4844 77.1668 51.3972 76.9731C51.3713 76.9278 51.3455 76.8697 51.3164 76.8051C51.2874 76.7405 51.2486 76.6598 51.2034 76.5662C51.1582 76.4725 51.1001 76.3563 51.029 76.2239C50.958 76.0915 50.8708 75.9235 50.7642 75.7233L49.6889 73.6953C49.5662 73.4628 49.4628 73.2658 49.3757 73.1076C49.2917 72.9494 49.2174 72.8105 49.1593 72.6975C49.0979 72.5845 49.0463 72.4876 49.0011 72.4101C48.9558 72.3326 48.9074 72.2551 48.859 72.1776C48.7492 72.0064 48.6523 71.8934 48.5619 71.8417C48.4715 71.7901 48.3875 71.7578 48.31 71.7384C48.226 71.7222 48.1324 71.7384 48.0355 71.7739C47.9354 71.8127 47.8353 71.8611 47.7287 71.916L47.6577 71.9031L47.5317 71.7384L47.5479 71.719C47.5931 71.6932 47.6706 71.6544 47.7772 71.5963C47.8837 71.5414 48 71.48 48.1227 71.4122C48.2454 71.3476 48.3649 71.2831 48.4811 71.2217C48.5974 71.1603 48.691 71.1087 48.7653 71.0699L50.4026 70.2013L50.4058 70.2174Z" fill="url(#paint8_linear_76_653)"/>
<path id="Vector_10" d="M58.8239 65.5446C58.9918 65.6738 59.1533 65.7513 59.3083 65.7739C59.4633 65.7997 59.6312 65.7836 59.8088 65.7255C59.9864 65.6673 60.1834 65.5704 60.3965 65.4348C60.6097 65.2992 60.8551 65.1345 61.1296 64.9375C61.3718 64.7728 61.6204 64.6146 61.8756 64.4693C62.1307 64.3239 62.3922 64.2206 62.6635 64.156C62.9348 64.0947 63.2092 64.0882 63.487 64.1399C63.7647 64.1915 64.0489 64.3272 64.333 64.55C64.6366 64.7857 64.8497 65.0441 64.9692 65.325C65.0887 65.6092 65.1404 65.8966 65.1177 66.1969C65.0984 66.494 65.0176 66.7976 64.8788 67.1044C64.7399 67.4111 64.5591 67.705 64.3395 67.9924C64.0553 68.3638 63.755 68.6673 63.4353 68.9095C63.1188 69.1485 62.8024 69.3455 62.4891 69.494L62.3438 69.4391L61.501 68.5511L61.6721 68.3282H61.7593C62.1468 68.5737 62.5279 68.635 62.8992 68.5026C63.2706 68.3702 63.6323 68.0764 63.981 67.6243C64.3395 67.1593 64.5042 66.7265 64.4719 66.3261C64.4428 65.9289 64.2555 65.5963 63.9165 65.3347C63.7066 65.1732 63.4999 65.0861 63.29 65.0667C63.0801 65.0473 62.8702 65.0731 62.6603 65.1442C62.4504 65.2152 62.2372 65.3186 62.0273 65.4574C61.8174 65.5963 61.6043 65.7351 61.3944 65.874C61.1328 66.0548 60.8777 66.2098 60.6258 66.3455C60.3739 66.4811 60.1285 66.5748 59.8863 66.6329C59.6441 66.6878 59.4019 66.6942 59.163 66.6458C58.924 66.6006 58.685 66.4843 58.4461 66.3003C58.1651 66.0839 57.9649 65.8514 57.8486 65.606C57.7292 65.3573 57.6775 65.1022 57.6872 64.8342C57.6969 64.5661 57.7647 64.2981 57.8874 64.0269C58.0101 63.7556 58.1748 63.4843 58.3815 63.2163C58.6301 62.8934 58.8949 62.6124 59.1726 62.3702C59.4536 62.128 59.7022 61.9504 59.9251 61.8374L60.051 61.8762L60.7518 62.6157L60.558 62.8675L60.4773 62.8772C60.3126 62.7707 60.1479 62.7255 59.9832 62.7416C59.8185 62.7577 59.6635 62.8062 59.515 62.8869C59.3664 62.9676 59.2308 63.071 59.1048 63.1969C58.9789 63.3229 58.8756 63.4391 58.7916 63.5489C58.4945 63.9364 58.3427 64.3078 58.3427 64.6598C58.3427 65.0118 58.501 65.3089 58.8174 65.5543L58.8239 65.5446Z" fill="url(#paint9_linear_76_653)"/>
</g>
</g>
<g id="Group_5">
<path id="Vector_11" d="M74.0156 40.9733C74.0156 40.9733 72.2524 39.5233 72.2524 38.5998C72.2524 38.1218 72.6399 37.7375 73.1147 37.7375C73.486 37.7375 73.8025 37.9701 73.9252 38.2994C74.0479 37.9701 74.3644 37.7375 74.7358 37.7375C75.2137 37.7375 75.598 38.1251 75.598 38.5998C75.598 39.5233 74.0156 40.9733 74.0156 40.9733Z" fill="url(#paint10_linear_76_653)"/>
<path id="Vector_12" d="M1.76367 40.9733C1.76367 40.9733 0.000488281 39.5233 0.000488281 38.5998C0.000488281 38.1218 0.388001 37.7375 0.862705 37.7375C1.23407 37.7375 1.55054 37.9701 1.67325 38.2994C1.79597 37.9701 2.11244 37.7375 2.4838 37.7375C2.96174 37.7375 3.34602 38.1251 3.34602 38.5998C3.34602 39.5233 1.76367 40.9733 1.76367 40.9733Z" fill="url(#paint11_linear_76_653)"/>
<g id="Group_6">
<path id="Vector_13" d="M61.644 31.8086C61.5665 31.2596 61.3178 30.7946 60.9497 30.5007C60.5751 30.2036 60.0649 30.1035 59.5999 30.2036C59.6483 30.0777 59.6838 29.942 59.6968 29.8032C59.7387 29.3931 59.616 29.0023 59.3577 28.7278C59.0896 28.4404 58.686 28.3048 58.2759 28.3629C58.0498 28.3952 57.8399 28.4889 57.6558 28.6245C57.7237 28.0723 57.6171 27.5136 57.0972 26.9937C56.7484 26.6482 56.1962 26.5093 55.6149 26.6256C55.2177 26.7031 54.8528 26.8871 54.517 27.0712C54.4169 26.2381 53.729 25.5018 52.8894 25.3823C52.0627 25.2661 51.2134 25.773 50.8776 26.5255C50.7323 26.3479 50.5805 26.1896 50.3964 26.0572C50.0638 25.8215 49.686 25.7408 49.3598 25.8312C49.0498 25.9184 48.7786 26.1606 48.6203 26.4996C48.5848 26.5739 48.559 26.6482 48.5364 26.7225C48.0391 26.2833 47.2479 26.1929 46.6795 26.5416C46.1693 26.8549 45.8948 27.4878 45.9626 28.0788C45.559 27.9302 45.0617 28.0013 44.7 28.2983C44.2673 28.6536 44.0541 29.2639 44.1478 29.8968C44.2188 30.3877 44.4675 30.8882 44.8808 31.3888C45.391 32.0023 46.0337 32.4899 46.6537 32.9647L46.8313 33.1003C47.4836 33.6008 48.1585 34.1433 48.6236 34.8312C49.1112 35.5481 49.292 36.3457 49.1306 37.0303C49.1306 37.0368 49.1273 37.0465 49.1273 37.0529C49.1273 37.0626 49.1273 37.0691 49.1209 37.0788C48.1262 38.251 46.9314 39.2876 45.4911 40.2144C45.7172 39.6396 45.8787 38.9679 45.9497 38.2639C46.6989 37.7634 47.0218 36.7429 46.9443 35.9646C46.9346 35.871 46.8507 35.8032 46.7538 35.8096C46.6602 35.8193 46.5891 35.9033 46.5988 36.0002C46.6569 36.5879 46.4567 37.3339 45.982 37.7957C46.0272 36.7461 45.8657 35.6676 45.4298 34.7666C45.5719 34.6342 45.6655 34.4469 45.6688 34.237C45.6784 33.8269 45.3491 33.4813 44.9389 33.4749C44.7387 33.4716 44.5514 33.5459 44.4061 33.6816C44.2608 33.8204 44.1801 34.0045 44.1768 34.2047C44.1671 34.5954 44.4642 34.9248 44.8485 34.9636C44.8679 34.9636 44.8873 34.9636 44.9099 34.9668C44.9874 34.9668 45.0584 34.9539 45.1295 34.9345C45.9594 36.6686 45.7107 39.1067 44.9648 40.5438C43.3953 41.4867 41.5579 42.3166 39.391 43.0594C39.2748 43.0981 39.1553 43.1336 39.0358 43.1724C40.6182 40.589 40.3631 36.6299 39.2554 34.0626C39.2457 34.04 39.2296 34.0206 39.2102 34.0045C39.2037 34.0013 39.1973 33.998 39.1908 33.9948C39.1779 33.9883 39.1682 33.9786 39.1553 33.9722C39.1521 33.9722 39.1456 33.9722 39.1424 33.9722C39.1392 33.9722 39.1359 33.969 39.1327 33.969C39.1262 33.969 39.1198 33.969 39.1166 33.969C39.0972 33.969 39.081 33.969 39.0649 33.969C39.0584 33.969 39.052 33.969 39.0455 33.9754C39.0261 33.9819 39.01 33.9916 38.9971 34.0045C38.9938 34.0045 38.9874 34.0077 38.9842 34.0109L38.9777 34.0174C38.9777 34.0174 38.9777 34.0174 38.9745 34.0206C37.8959 35.0378 37.2048 36.7074 37.1176 38.4867C37.0337 40.2757 37.5116 42.1713 38.3448 43.3984C36.9206 43.8473 35.4707 44.2413 34.0337 44.6094C33.6332 44.7128 33.2296 44.8161 32.8324 44.9162C31.7958 45.1778 30.7495 45.4458 29.7 45.73C30.1585 45.2585 30.5622 44.6611 30.8819 43.9668C31.5536 43.5502 32.109 43.0691 32.5547 42.5201C32.5547 42.5201 32.5579 42.5201 32.5611 42.5201C32.5773 42.5072 34.2726 41.138 35.6935 41.645C35.7839 41.6772 35.884 41.632 35.9131 41.5416C35.9454 41.4512 35.897 41.3543 35.8098 41.322C34.8184 40.9668 33.7592 41.3834 33.0746 41.7677C33.5816 40.8764 33.8367 39.8462 33.8431 38.6837C34.3178 38.5804 34.6828 38.1638 34.6924 37.6568C34.6989 37.3694 34.5923 37.0981 34.3921 36.8915C34.1919 36.6848 33.9271 36.5685 33.6397 36.5621C33.3523 36.5556 33.081 36.6622 32.8744 36.8624C32.6677 37.0626 32.5514 37.3274 32.545 37.6148C32.5385 37.9022 32.6451 38.1735 32.8453 38.3802C33.0197 38.5642 33.2522 38.6772 33.5008 38.7031C33.4847 40.7246 32.7064 42.2682 31.1241 43.3984C31.4244 42.5944 31.6053 41.7386 31.6408 40.9216C31.9895 40.8409 32.2576 40.5309 32.264 40.1563C32.2673 39.9399 32.1898 39.7365 32.0412 39.5814C31.8927 39.4264 31.6924 39.3392 31.4761 39.3328C31.2597 39.3296 31.0563 39.4071 30.9013 39.5556C30.7463 39.7042 30.6591 39.9044 30.6526 40.1207C30.6462 40.3371 30.7269 40.5405 30.8754 40.6955C30.9885 40.815 31.1338 40.8893 31.2888 40.9216C31.2436 41.871 30.9981 42.8818 30.588 43.7827C30.1618 44.7192 29.587 45.4684 28.9282 45.9528C27.869 46.2531 26.813 46.5825 25.7732 46.9539C25.7603 46.9539 25.7473 46.9603 25.7344 46.9668C25.2597 47.138 24.7915 47.3123 24.3265 47.4996C23.9131 47.6676 23.5095 47.8484 23.1122 48.0357C23.4158 47.6288 23.6515 47.1412 23.8098 46.5825C24.2619 44.9743 23.9712 43.1401 23.0509 41.7967C23.0509 41.7935 23.0444 41.7903 23.0412 41.787C23.0347 41.7774 23.0251 41.7677 23.0154 41.7612C23.0057 41.7547 22.9992 41.7483 22.9895 41.7418C22.9863 41.7418 22.9831 41.7354 22.9766 41.7321C22.9702 41.7321 22.9605 41.7321 22.954 41.7289C22.9476 41.7289 22.9411 41.7225 22.9346 41.7225C22.9314 41.7225 22.9282 41.7225 22.9217 41.7225C22.9056 41.7225 22.8927 41.7225 22.8765 41.7257C22.8701 41.7257 22.8636 41.7257 22.8571 41.7289C22.841 41.7354 22.8281 41.7418 22.8119 41.7515C22.8087 41.7515 22.8022 41.7547 22.7958 41.758C21.4233 42.9076 20.5966 44.6643 20.5837 46.4566C20.5773 47.1541 20.7032 48.1455 21.2974 48.9754C18.5945 50.5319 16.418 52.4986 15.0164 54.6912C14.9648 54.772 14.9874 54.8785 15.0681 54.9302C15.0907 54.9464 15.1166 54.9528 15.1424 54.956C15.2037 54.9625 15.2683 54.9334 15.3071 54.8785C17.1639 51.9754 20.4126 49.4663 24.4556 47.8161C24.8657 47.6482 25.2791 47.4932 25.6957 47.3414C26.4352 50.0282 28.3469 51.5039 31.7054 51.9722C31.7054 51.9722 31.7086 51.9722 31.7118 51.9722C31.7409 51.9722 31.7699 51.969 31.799 51.956C31.8087 51.9528 31.8119 51.9464 31.8216 51.9431C31.8345 51.9367 31.8474 51.9302 31.8571 51.9205C31.8636 51.9141 31.8636 51.9076 31.8701 51.9011C31.8733 51.8979 31.8797 51.8947 31.883 51.8915C31.8862 51.885 31.8894 51.8753 31.8927 51.8656C31.8959 51.8559 31.8991 51.8495 31.9023 51.8398C31.9056 51.8204 31.9056 51.8043 31.9023 51.7849C31.9023 51.7784 31.9023 51.7752 31.9023 51.7687C31.5374 49.899 30.5848 47.7063 26.5514 47.0411C28.6472 46.3339 30.8076 45.7849 32.9163 45.2521C33.3103 45.1519 33.7075 45.0518 34.1047 44.9485C34.9799 44.7967 35.8873 44.8936 36.8108 45.2424C38.0638 45.8915 38.2124 48.1907 37.7183 49.4663C37.7054 49.4663 37.6924 49.463 37.6763 49.4598C37.1628 49.4501 36.7366 49.857 36.7269 50.3705C36.7172 50.8581 37.0853 51.2682 37.5633 51.3166C37.5891 51.3166 37.6149 51.3199 37.6375 51.3199C38.151 51.3296 38.5773 50.9227 38.587 50.4092C38.5934 50.0314 38.3738 49.702 38.0541 49.5502C38.4675 48.4523 38.4416 46.7601 37.7667 45.6945C38.4384 46.0788 39.0713 46.5825 39.6106 47.1735C39.5073 47.3059 39.4427 47.4673 39.4395 47.6482C39.4298 48.068 39.7495 48.42 40.1596 48.462C40.1822 48.462 40.2016 48.4652 40.2242 48.4652C40.4373 48.4684 40.6408 48.3909 40.7958 48.2424C40.9508 48.0938 41.038 47.8936 41.0412 47.6805C41.0444 47.4673 40.9669 47.2639 40.8184 47.1089C40.6698 46.9539 40.4728 46.8699 40.2565 46.8635C40.1176 46.8635 39.9917 46.8958 39.8754 46.9539C39.052 46.0465 38.0154 45.3263 36.9432 44.9227C36.4718 44.7418 36.0003 44.6288 35.5353 44.5707C36.5945 44.2865 37.6537 43.983 38.7 43.6471C38.7 43.6471 38.7032 43.6471 38.7064 43.6471C38.9745 43.5599 39.2457 43.4792 39.5138 43.3888C40.2565 43.1336 40.9572 42.8689 41.6257 42.5944C41.7678 43.2112 42.4007 44.9227 45.1392 45.4555C45.5913 45.5427 46.0046 45.604 46.3857 45.6428C49.5019 45.9593 50.3609 44.8 50.3997 44.7451C50.4061 44.7386 50.4061 44.7289 50.4093 44.7225C50.4126 44.7128 50.419 44.7063 50.4223 44.6966C50.4255 44.6805 50.4287 44.6676 50.4287 44.6514C50.4287 44.645 50.4287 44.6417 50.4287 44.6353C50.4287 44.6127 50.4223 44.5933 50.4126 44.5739C50.4126 44.5707 50.4061 44.5642 50.4029 44.561C50.3964 44.5481 50.39 44.5352 50.3771 44.5255C48.7043 42.8527 45.5428 41.8193 43.0111 41.9873C43.7829 41.6223 44.503 41.2381 45.1747 40.8344C45.1811 40.8344 45.1876 40.8279 45.1941 40.8247C45.6558 40.547 46.095 40.2564 46.5116 39.9593C47.5321 39.1778 48.7689 38.9743 49.6279 38.942C50.2317 38.9194 50.8518 38.9614 51.4492 39.0034C51.5816 39.0131 51.7204 39.0195 51.8561 39.0292C51.8561 39.0292 51.8625 39.0292 51.8657 39.0292C52.3405 39.0389 53.067 39.2714 53.4836 39.6848C53.4836 39.6848 53.4836 39.6848 53.4868 39.688C53.5482 39.9528 53.3997 41.2865 52.6924 42.4103C52.4535 42.7913 52.2533 43.3435 52.418 43.7504C52.4825 43.9087 52.6279 44.1153 52.9766 44.2058C53.0121 44.2155 53.0444 44.2219 53.08 44.2251C53.3318 44.251 53.5514 44.1283 53.7226 43.9442C53.7387 43.97 53.7549 43.9959 53.7775 44.0217C53.9454 44.2348 54.236 44.3543 54.5364 44.3349C54.8044 44.3156 55.0304 44.1799 55.2242 43.9184C55.4018 43.6826 55.4599 43.3662 55.4696 43.0949C55.6246 43.195 55.8087 43.2596 55.9863 43.2693C56.2802 43.2887 56.5288 43.1563 56.6645 42.9108C56.9163 42.4587 56.7032 41.8226 56.419 41.3801C56.1219 40.9151 54.9949 39.5782 53.6838 39.4006C53.545 39.2714 53.3835 39.1616 53.2124 39.0648C54.0229 39.0389 54.7043 38.9033 55.2888 38.6514C55.2985 38.6611 55.3049 38.674 55.3146 38.6837C55.4535 38.829 55.6375 38.9162 55.8345 38.9388C55.8571 38.9388 55.8797 38.942 55.9023 38.942C56.3641 38.9517 56.7484 38.5836 56.7581 38.1186C56.7613 37.8958 56.6806 37.6826 56.5256 37.5212C56.3706 37.3597 56.1607 37.2693 55.9379 37.2628C55.4761 37.2531 55.0918 37.6213 55.0821 38.0863C55.0821 38.1767 55.095 38.2639 55.1209 38.3479C54.5008 38.6062 53.7581 38.7321 52.8507 38.7225C52.3953 38.7192 51.9271 38.6869 51.4782 38.6546C50.8711 38.6127 50.2414 38.5675 49.6182 38.5933C49.1144 38.6127 48.4815 38.6902 47.8356 38.9001C48.404 38.3963 48.9271 37.8699 49.4018 37.308C50.587 36.6525 51.9239 36.4329 53.193 36.2682C53.855 36.181 54.5396 36.1584 55.2016 36.1358C55.6924 36.1197 56.1994 36.1003 56.7 36.0583C58.1725 35.9324 59.2543 35.5933 60.1101 34.9926C61.2145 34.2144 61.8216 32.9711 61.6569 31.8215L61.644 31.8086ZM44.9196 34.618C44.6967 34.618 44.5224 34.4307 44.5256 34.2079C44.5256 34.1014 44.5708 34.0012 44.6483 33.927C44.7258 33.8527 44.8259 33.814 44.9325 33.8172C44.9422 33.8172 44.9551 33.8172 44.9648 33.8172C45.1714 33.8366 45.3297 34.0142 45.3232 34.2241C45.32 34.4437 45.1359 34.6213 44.9131 34.618H44.9196ZM32.884 37.6116C32.8873 37.4178 32.968 37.237 33.1069 37.1014C33.249 36.9657 33.433 36.8947 33.6268 36.8979C33.6462 36.8979 33.6655 36.8979 33.6881 36.9011C33.8593 36.9173 34.0175 36.9948 34.1402 37.1207C34.2759 37.2628 34.3469 37.4469 34.3437 37.6406C34.3405 37.8344 34.2597 38.0185 34.1209 38.1509C33.9788 38.2865 33.7947 38.3575 33.6009 38.3543C33.404 38.3511 33.2264 38.2704 33.0907 38.1315C32.9551 37.9894 32.884 37.8053 32.8873 37.6116H32.884ZM30.9949 40.1207C30.9949 39.998 31.0466 39.885 31.137 39.7978C31.2274 39.7106 31.3405 39.6686 31.4632 39.6719C31.4761 39.6719 31.489 39.6719 31.5019 39.6719C31.6085 39.6816 31.7086 39.73 31.7861 39.8107C31.8701 39.8979 31.9153 40.0142 31.9153 40.1369C31.9088 40.3888 31.6989 40.5922 31.447 40.5858C31.3243 40.5825 31.2113 40.5341 31.1241 40.4437C31.0401 40.3565 30.9949 40.2402 30.9981 40.1175L30.9949 40.1207ZM23.4772 46.4792C23.3092 47.0701 23.0574 47.5739 22.7215 47.9743C22.4212 48.336 22.0886 48.5685 21.6752 48.7138C21.7721 45.7752 22.6214 43.1659 22.9443 42.2747C23.6612 43.5018 23.8711 45.0777 23.4772 46.476V46.4792ZM22.4922 42.5265C22.1241 43.6213 21.475 45.8624 21.3458 48.3877C21.0068 47.7225 20.926 46.9959 20.9325 46.4566C20.9422 45.0099 21.517 43.589 22.4955 42.5265H22.4922ZM26.1671 47.6999C26.9971 48.491 28.8184 50.138 30.8819 51.4749C28.3631 50.9485 26.8711 49.7537 26.1671 47.6999ZM31.4664 51.4329C29.1639 50.0152 27.1036 48.1229 26.2963 47.3446C28.5084 47.6546 30.7172 48.4781 31.4664 51.4329ZM38.235 50.3995C38.2285 50.7225 37.9605 50.9808 37.6375 50.9711C37.3178 50.9646 37.0563 50.6966 37.066 50.3737C37.0724 50.0508 37.3405 49.7924 37.6634 49.8021C37.9831 49.8053 38.2446 50.0766 38.2382 50.3995H38.235ZM40.2436 47.2058C40.2436 47.2058 40.2694 47.2058 40.2823 47.2058C40.3889 47.2155 40.489 47.2639 40.5633 47.3446C40.6472 47.4318 40.6924 47.5481 40.6892 47.6708C40.6892 47.7935 40.6375 47.9065 40.5504 47.9905C40.4632 48.0744 40.3469 48.1197 40.2242 48.1164C40.1015 48.1132 39.9885 48.0648 39.9045 47.9776C39.8205 47.8904 39.7753 47.7741 39.7786 47.6514C39.7786 47.5287 39.8302 47.4157 39.9174 47.3317C40.0046 47.2478 40.1209 47.2025 40.2436 47.2058ZM38.7355 42.998C38.2414 38.7515 38.8356 35.7741 39.1262 34.6632C40.0401 37.1466 40.1758 40.6665 38.7355 42.998ZM38.7387 34.786C38.4384 36.0325 37.9443 38.8484 38.3609 42.7494C37.7409 41.5933 37.3889 39.9851 37.4599 38.4964C37.5278 37.082 37.996 35.7483 38.7387 34.786ZM55.9217 37.5987C55.9217 37.5987 55.9476 37.5987 55.9605 37.5987C56.2124 37.6245 56.4093 37.8409 56.4029 38.0992C56.3964 38.3705 56.1704 38.5868 55.8991 38.5836C55.7699 38.5836 55.644 38.5255 55.5536 38.4318C55.4632 38.3382 55.4147 38.2122 55.4147 38.0798C55.4212 37.8086 55.6472 37.5922 55.9185 37.5954L55.9217 37.5987ZM56.1187 41.5545C56.3544 41.9259 56.5191 42.4329 56.3512 42.7332C56.2802 42.8656 56.1607 42.927 55.996 42.9141C55.7538 42.9044 55.4793 42.7235 55.405 42.5395C55.3727 42.4555 55.2791 42.4103 55.1919 42.4394C55.1047 42.4684 55.0563 42.5556 55.0757 42.646C55.1241 42.8495 55.1564 43.4017 54.9303 43.702C54.7947 43.8828 54.6591 43.97 54.4944 43.9829C54.3103 43.9959 54.1295 43.9248 54.0326 43.8021C53.9583 43.7085 53.9422 43.5954 53.9842 43.4663C54.0132 43.3758 53.9648 43.279 53.8744 43.2499C53.7839 43.2208 53.6871 43.2661 53.6548 43.3565C53.5676 43.6019 53.3318 43.9377 53.0477 43.8667C52.8797 43.8247 52.7732 43.744 52.7247 43.618C52.6182 43.35 52.7732 42.9076 52.9734 42.5911C53.5159 41.7289 53.7581 40.7634 53.813 40.1336C54.0358 40.5664 54.1004 41.1799 53.9196 42.2973C53.9034 42.3909 53.968 42.4813 54.0617 42.4943C54.0649 42.4943 54.0681 42.4943 54.0713 42.4943C54.1618 42.5039 54.2457 42.4394 54.2586 42.3489C54.4007 41.4706 54.4104 40.8441 54.2683 40.35C54.4363 40.589 54.5945 40.9054 54.6849 41.3285C54.7011 41.4028 54.7624 41.4577 54.8367 41.4641C54.8528 41.4641 54.8722 41.4641 54.8916 41.4641C54.9852 41.4447 55.0434 41.3511 55.024 41.2574C54.9045 40.6988 54.6817 40.2983 54.4492 40.0174C55.263 40.4501 55.9056 41.2381 56.1122 41.561L56.1187 41.5545ZM48.9368 26.6482C49.053 26.4028 49.2468 26.2251 49.4567 26.167C49.6795 26.1057 49.9605 26.167 50.2027 26.3414C50.4287 26.5029 50.6096 26.7321 50.8065 26.9905C50.8485 27.0454 50.9163 27.0712 50.9809 27.0551C51.0455 27.0422 51.0972 26.9905 51.1133 26.9227C51.2812 26.1767 52.095 25.6245 52.8474 25.7214C53.6031 25.8279 54.2296 26.5868 54.1876 27.3489C54.1844 27.4135 54.2167 27.4716 54.2683 27.5072C54.3232 27.5395 54.391 27.5427 54.4459 27.5072C54.8399 27.2811 55.2468 27.0454 55.686 26.9582C56.0477 26.8871 56.5417 26.9194 56.855 27.2327C57.5783 27.9528 57.3491 28.7537 57.0294 29.5739C56.2156 31.66 53.4836 33.9011 51.4847 35.3543C53.2834 33.3263 53.7194 31.4469 53.742 31.3436C53.7613 31.2499 53.7032 31.1595 53.6096 31.1369C53.5159 31.1175 53.4255 31.1756 53.4029 31.2693C53.3964 31.2983 52.8055 33.8527 50.1607 36.181C51.5202 33.7268 51.0681 30.3812 51.0455 30.2198C51.0326 30.1261 50.9422 30.0615 50.8485 30.0744C50.7549 30.0874 50.6871 30.1746 50.7032 30.2714C50.7097 30.307 51.1359 33.4587 49.9637 35.8129C49.9895 35.6837 50.0121 35.5642 50.0283 35.4577C50.2285 34.1789 49.9669 32.9743 49.6537 31.8667C49.5794 31.6051 49.5019 31.3468 49.4244 31.0852C49.0724 29.9098 48.7107 28.6923 48.7721 27.4394C48.785 27.2068 48.8141 26.9065 48.9336 26.6482H48.9368ZM47.0444 32.8226L46.8668 32.6869C46.2629 32.2251 45.6365 31.7504 45.1521 31.1659C44.7775 30.7171 44.5579 30.2714 44.4933 29.8452C44.419 29.3414 44.587 28.8409 44.9228 28.5664C45.2812 28.2725 45.8464 28.2822 46.1273 28.589C46.1854 28.6536 46.2823 28.6633 46.3534 28.6148C46.4244 28.5664 46.447 28.4727 46.4115 28.3952C46.1499 27.8624 46.3566 27.1487 46.8636 26.8387C47.3674 26.5287 48.0972 26.6643 48.4556 27.1358C48.4427 27.2359 48.433 27.3328 48.4298 27.42C48.3652 28.7343 48.7366 29.9776 49.095 31.1821C49.1725 31.4404 49.25 31.6988 49.3211 31.9571C49.6246 33.0292 49.8765 34.1885 49.686 35.4028C49.6795 35.4512 49.6698 35.4996 49.6601 35.5545C49.6279 32.7677 47.5224 31.2015 47.4998 31.1821C47.4223 31.1272 47.3157 31.1433 47.2576 31.2208C47.1994 31.2983 47.2188 31.4049 47.2963 31.463C47.39 31.5309 49.2274 32.9065 49.3146 35.406C49.2145 35.1444 49.0821 34.8828 48.911 34.631C48.4169 33.9011 47.7161 33.336 47.0412 32.8226H47.0444ZM45.1973 45.1067C42.869 44.6546 42.1941 43.35 42.0003 42.7042C42.8561 43.2079 45.2296 44.4577 48.2167 44.7644C48.7107 44.8161 49.221 44.8387 49.7441 44.829C49.179 45.1713 47.8679 45.6267 45.1973 45.1067ZM49.8216 44.4803C46.221 44.5707 43.2081 43.0109 42.207 42.4232C44.574 41.9679 47.9648 42.8818 49.8216 44.4803ZM59.9002 34.6923C59.0993 35.2574 58.0692 35.5739 56.6612 35.6966C56.1704 35.7386 55.6666 35.758 55.179 35.7741C54.5105 35.7967 53.8162 35.8226 53.1381 35.9098C52.3243 36.0163 51.433 36.1552 50.5644 36.4264C50.6289 36.3845 50.6935 36.3392 50.7613 36.2908C53.461 34.7472 56.3641 34.7989 56.3964 34.7989C56.4933 34.7989 56.5708 34.7246 56.574 34.631C56.574 34.5341 56.503 34.4566 56.4061 34.4533C56.2995 34.4533 54.4201 34.4178 52.2565 35.2155C54.207 33.7461 56.587 31.6697 57.3523 29.7031C57.391 29.603 57.4298 29.4996 57.4653 29.3963C57.6623 28.9991 57.9691 28.7504 58.3308 28.6988C58.6279 28.6536 58.9185 28.7504 59.109 28.9571C59.2963 29.1606 59.3867 29.4544 59.3577 29.7612C59.3286 30.0454 59.2027 30.2973 59.0057 30.4587C58.9863 30.4749 58.9637 30.491 58.9443 30.5072C58.8733 30.5653 58.8604 30.6719 58.9153 30.7461C58.9734 30.8204 59.0767 30.8366 59.1542 30.7817C59.1768 30.7655 59.1962 30.7494 59.2188 30.7332C59.658 30.4168 60.3135 30.4264 60.7398 30.7655C61.0401 31.0045 61.2403 31.3888 61.3049 31.8506C61.4502 32.871 60.898 33.9851 59.9002 34.6891V34.6923Z" fill="url(#paint12_linear_76_653)"/>
</g>
</g>
</g>
</mask>
<g mask="url(#mask0_76_653)">
<rect id="Rectangle" width="75.5651" height="81.0549" fill="#222222"/>
</g>
</g>
<defs>
<linearGradient id="paint0_linear_76_653" x1="9.69172" y1="16.492" x2="15.259" y2="10.9279" gradientUnits="userSpaceOnUse">
<stop stop-color="#AB8D60"/>
<stop offset="0.15" stop-color="#AB8D60"/>
<stop offset="0.37" stop-color="#C6AC7E"/>
<stop offset="0.61" stop-color="#E1CB9B"/>
<stop offset="0.72" stop-color="#EED9AB"/>
<stop offset="0.84" stop-color="#E1CB9B"/>
<stop offset="1" stop-color="#AB8D60"/>
</linearGradient>
<linearGradient id="paint1_linear_76_653" x1="21.5598" y1="9.01602" x2="27.0334" y2="3.54239" gradientUnits="userSpaceOnUse">
<stop stop-color="#AB8D60"/>
<stop offset="0.15" stop-color="#AB8D60"/>
<stop offset="0.37" stop-color="#C6AC7E"/>
<stop offset="0.61" stop-color="#E1CB9B"/>
<stop offset="0.72" stop-color="#EED9AB"/>
<stop offset="0.84" stop-color="#E1CB9B"/>
<stop offset="1" stop-color="#AB8D60"/>
</linearGradient>
<linearGradient id="paint2_linear_76_653" x1="33.8265" y1="6.81701" x2="38.8803" y2="1.75996" gradientUnits="userSpaceOnUse">
<stop stop-color="#AB8D60"/>
<stop offset="0.15" stop-color="#AB8D60"/>
<stop offset="0.37" stop-color="#C6AC7E"/>
<stop offset="0.61" stop-color="#E1CB9B"/>
<stop offset="0.72" stop-color="#EED9AB"/>
<stop offset="0.84" stop-color="#E1CB9B"/>
<stop offset="1" stop-color="#AB8D60"/>
</linearGradient>
<linearGradient id="paint3_linear_76_653" x1="46.1274" y1="8.73833" x2="52.4697" y2="2.3928" gradientUnits="userSpaceOnUse">
<stop stop-color="#AB8D60"/>
<stop offset="0.15" stop-color="#AB8D60"/>
<stop offset="0.37" stop-color="#C6AC7E"/>
<stop offset="0.61" stop-color="#E1CB9B"/>
<stop offset="0.72" stop-color="#EED9AB"/>
<stop offset="0.84" stop-color="#E1CB9B"/>
<stop offset="1" stop-color="#AB8D60"/>
</linearGradient>
<linearGradient id="paint4_linear_76_653" x1="58.6186" y1="15.0774" x2="64.3538" y2="9.34225" gradientUnits="userSpaceOnUse">
<stop stop-color="#AB8D60"/>
<stop offset="0.15" stop-color="#AB8D60"/>
<stop offset="0.37" stop-color="#C6AC7E"/>
<stop offset="0.61" stop-color="#E1CB9B"/>
<stop offset="0.72" stop-color="#EED9AB"/>
<stop offset="0.84" stop-color="#E1CB9B"/>
<stop offset="1" stop-color="#AB8D60"/>
</linearGradient>
<linearGradient id="paint5_linear_76_653" x1="10.0334" y1="68.6673" x2="16.4758" y2="62.2249" gradientUnits="userSpaceOnUse">
<stop stop-color="#AB8D60"/>
<stop offset="0.15" stop-color="#AB8D60"/>
<stop offset="0.37" stop-color="#C6AC7E"/>
<stop offset="0.61" stop-color="#E1CB9B"/>
<stop offset="0.72" stop-color="#EED9AB"/>
<stop offset="0.84" stop-color="#E1CB9B"/>
<stop offset="1" stop-color="#AB8D60"/>
</linearGradient>
<linearGradient id="paint6_linear_76_653" x1="20.0281" y1="76.9827" x2="25.999" y2="71.015" gradientUnits="userSpaceOnUse">
<stop stop-color="#AB8D60"/>
<stop offset="0.15" stop-color="#AB8D60"/>
<stop offset="0.37" stop-color="#C6AC7E"/>
<stop offset="0.61" stop-color="#E1CB9B"/>
<stop offset="0.72" stop-color="#EED9AB"/>
<stop offset="0.84" stop-color="#E1CB9B"/>
<stop offset="1" stop-color="#AB8D60"/>
</linearGradient>
<linearGradient id="paint7_linear_76_653" x1="33.3362" y1="81.5554" x2="41.6258" y2="73.2626" gradientUnits="userSpaceOnUse">
<stop stop-color="#AB8D60"/>
<stop offset="0.15" stop-color="#AB8D60"/>
<stop offset="0.37" stop-color="#C6AC7E"/>
<stop offset="0.61" stop-color="#E1CB9B"/>
<stop offset="0.72" stop-color="#EED9AB"/>
<stop offset="0.84" stop-color="#E1CB9B"/>
<stop offset="1" stop-color="#AB8D60"/>
</linearGradient>
<linearGradient id="paint8_linear_76_653" x1="49.043" y1="76.353" x2="54.0904" y2="71.3057" gradientUnits="userSpaceOnUse">
<stop stop-color="#AB8D60"/>
<stop offset="0.15" stop-color="#AB8D60"/>
<stop offset="0.37" stop-color="#C6AC7E"/>
<stop offset="0.61" stop-color="#E1CB9B"/>
<stop offset="0.72" stop-color="#EED9AB"/>
<stop offset="0.84" stop-color="#E1CB9B"/>
<stop offset="1" stop-color="#AB8D60"/>
</linearGradient>
<linearGradient id="paint9_linear_76_653" x1="59.5408" y1="67.4208" x2="63.3901" y2="63.5715" gradientUnits="userSpaceOnUse">
<stop stop-color="#AB8D60"/>
<stop offset="0.15" stop-color="#AB8D60"/>
<stop offset="0.37" stop-color="#C6AC7E"/>
<stop offset="0.61" stop-color="#E1CB9B"/>
<stop offset="0.72" stop-color="#EED9AB"/>
<stop offset="0.84" stop-color="#E1CB9B"/>
<stop offset="1" stop-color="#AB8D60"/>
</linearGradient>
<linearGradient id="paint10_linear_76_653" x1="72.866" y1="39.8753" x2="75.049" y2="37.6923" gradientUnits="userSpaceOnUse">
<stop stop-color="#AB8D60"/>
<stop offset="0.15" stop-color="#AB8D60"/>
<stop offset="0.37" stop-color="#C6AC7E"/>
<stop offset="0.61" stop-color="#E1CB9B"/>
<stop offset="0.72" stop-color="#EED9AB"/>
<stop offset="0.84" stop-color="#E1CB9B"/>
<stop offset="1" stop-color="#AB8D60"/>
</linearGradient>
<linearGradient id="paint11_linear_76_653" x1="0.617281" y1="39.8753" x2="2.79704" y2="37.6923" gradientUnits="userSpaceOnUse">
<stop stop-color="#AB8D60"/>
<stop offset="0.15" stop-color="#AB8D60"/>
<stop offset="0.37" stop-color="#C6AC7E"/>
<stop offset="0.61" stop-color="#E1CB9B"/>
<stop offset="0.72" stop-color="#EED9AB"/>
<stop offset="0.84" stop-color="#E1CB9B"/>
<stop offset="1" stop-color="#AB8D60"/>
</linearGradient>
<linearGradient id="paint12_linear_76_653" x1="21.0972" y1="60.9657" x2="56.348" y2="25.7149" gradientUnits="userSpaceOnUse">
<stop stop-color="#AB8D60"/>
<stop offset="0.15" stop-color="#AB8D60"/>
<stop offset="0.37" stop-color="#C6AC7E"/>
<stop offset="0.61" stop-color="#E1CB9B"/>
<stop offset="0.72" stop-color="#EED9AB"/>
<stop offset="0.84" stop-color="#E1CB9B"/>
<stop offset="1" stop-color="#AB8D60"/>
</linearGradient>
</defs>
</svg>
