<svg width="31" height="49" viewBox="0 0 31 49" fill="none" xmlns="http://www.w3.org/2000/svg">
<g id="Logo 5" opacity="0.25">
<g id="Vector">
<mask id="mask0_76_694" style="mask-type:alpha" maskUnits="userSpaceOnUse" x="0" y="0" width="24" height="28">
<path id="Vector_2" d="M10.3674 27.0134C10.3674 27.0134 10.3791 26.9898 10.383 26.9819L10.2698 26.2846L10.1099 26.1231C9.6885 26.1231 9.28271 26.1034 8.90035 26.064C8.51799 26.0246 8.20588 25.9104 7.96788 25.7252C7.75719 25.5401 7.55819 25.2997 7.37482 25.0043C7.19144 24.7127 7.07048 24.1888 7.01975 23.4442C6.99244 23.1251 6.97295 22.8217 6.96124 22.542C6.94954 22.2623 6.93392 21.9235 6.92221 21.5217C6.91051 21.1198 6.90271 20.6195 6.90271 20.0207V14.9583C7.21874 14.6904 7.51136 14.4698 7.77667 14.2965C8.04199 14.1231 8.31901 13.9301 8.60773 13.7173H8.76771C9.18909 14.3595 9.75093 15.1789 10.4532 16.1796C11.1516 17.1802 11.8422 18.1691 12.5133 19.1421C13.1883 20.1152 13.7891 20.9701 14.3158 21.7029C14.4563 21.8959 14.788 22.2781 14.8933 22.4238C15.658 21.762 16.5398 21.2341 17.5386 21.171C15.1118 18.2321 12.8879 15.2144 10.8668 12.1139L14.0388 8.83224C14.9362 7.92614 15.7048 7.11064 16.3369 6.38969C16.9729 5.66875 17.5191 5.04235 17.9834 4.50657C18.4438 3.97472 18.8418 3.53349 19.1734 3.1868C19.505 2.84012 19.8016 2.58799 20.0669 2.42647C20.4648 2.15857 20.9525 1.96553 21.5339 1.84735C22.1152 1.72916 22.5756 1.62672 22.9229 1.54793L23.0829 1.38641V0.665468L22.9229 0.503943C22.5522 0.559098 22.2362 0.598489 21.9709 0.622126C21.7056 0.649703 21.4598 0.677285 21.2374 0.700923C21.0111 0.7285 20.7887 0.740321 20.5624 0.740321H17.8078C16.5398 0.740321 15.3771 0.661523 14.3197 0.5L14.1208 0.661525V1.38248L14.3197 1.544C14.5851 1.59916 14.8426 1.65036 15.0923 1.70551C15.342 1.76067 15.5683 1.83947 15.7673 1.94584C15.9663 2.0522 16.1301 2.19403 16.2628 2.36737C16.3954 2.54072 16.4617 2.77315 16.4617 3.06862C16.4617 3.44288 16.0794 4.12836 15.3108 5.12902C14.5421 6.12968 13.5941 7.20519 12.4548 8.35161C11.5028 9.31287 10.5196 10.219 9.50122 11.0739C8.48289 11.9288 7.61671 12.5827 6.90271 13.0358V7.95371C6.90271 7.33913 6.91051 6.81911 6.92221 6.39364C6.93392 5.96816 6.94954 5.5939 6.96124 5.27479C6.97295 4.95569 6.99244 4.609 7.01975 4.23474C7.07048 3.48621 7.19144 2.96619 7.37482 2.67466C7.55819 2.38313 7.75719 2.14281 7.96788 1.95371C8.20588 1.76855 8.51799 1.65431 8.90035 1.61491C9.28271 1.57552 9.6885 1.55582 10.1099 1.55582L10.2698 1.39429L10.3869 0.673343L10.3089 0.633957H0.675694L0.597656 0.673343L0.714701 1.39429L0.913689 1.55582C1.33507 1.55582 1.73303 1.57552 2.10369 1.61491C2.47434 1.65431 2.77868 1.76855 3.01668 1.95371C3.22737 2.13887 3.43414 2.38707 3.62922 2.69436C3.8282 3.00164 3.95307 3.51379 4.00769 4.23474C4.035 4.55384 4.05452 4.87689 4.06623 5.196C4.07793 5.5151 4.08573 5.90513 4.08573 6.35818V20.4895C4.08573 21.0253 4.07793 21.4783 4.06623 21.8486C4.05452 22.2229 4.0389 22.5381 4.0272 22.7902C4.01549 23.0423 4.00769 23.263 4.00769 23.4521C3.95307 24.2006 3.8282 24.7206 3.62922 25.0121C3.43024 25.3076 3.22737 25.5479 3.01668 25.7331C2.77868 25.9182 2.47434 26.0325 2.10369 26.0719C1.73303 26.1113 1.33507 26.131 0.913689 26.131L0.714701 26.2925L0.597656 27.0134L0.675694 27.0529H10.3089L10.3713 27.0213L10.3674 27.0134Z" fill="url(#paint0_linear_76_694)"/>
</mask>
<g mask="url(#mask0_76_694)">
<rect id="Rectangle" x="0.597656" y="0.5" width="30.0427" height="48.063" fill="#222222"/>
</g>
</g>
<g id="Vector_3">
<mask id="mask1_76_694" style="mask-type:alpha" maskUnits="userSpaceOnUse" x="17" y="24" width="9" height="4">
<path id="Vector_4" d="M25.3306 26.2846L25.0925 26.1231C24.1952 26.0167 23.4265 25.8552 22.7945 25.6424C22.1585 25.4297 21.585 25.15 21.0699 24.8033C20.7734 24.6024 20.4886 24.3739 20.2155 24.1296C19.123 24.2321 18.0735 24.7166 17.4453 25.5479C17.8043 25.9143 18.0384 26.1112 18.3739 26.3634C18.8343 26.7101 19.3181 26.9583 19.8214 27.104C20.3247 27.2498 20.9178 27.3246 21.6045 27.3246C22.0258 27.3246 22.6072 27.2971 23.3485 27.2458C24.0898 27.1907 24.7492 27.167 25.3306 27.167L25.4086 27.0055L25.3306 26.2846Z" fill="url(#paint1_linear_76_694)"/>
</mask>
<g mask="url(#mask1_76_694)">
<rect id="Rectangle_2" x="0.597656" y="0.5" width="30.0427" height="48.063" fill="#222222"/>
</g>
</g>
<g id="Vector_5">
<mask id="mask2_76_694" style="mask-type:alpha" maskUnits="userSpaceOnUse" x="12" y="21" width="19" height="28">
<path id="Vector_6" d="M16.0484 27.7304C16.0484 28.479 16.181 29.0975 16.4463 29.5899C16.7117 30.0824 17.1135 30.5157 17.6558 30.89C18.1982 31.2643 18.8849 31.6031 19.7159 31.9104C20.547 32.2177 21.5341 32.5446 22.6695 32.8913C23.6488 33.2104 24.6125 33.5729 25.5645 33.9708C26.5165 34.3726 27.367 34.8847 28.1201 35.5111C28.8731 36.1375 29.4739 36.8979 29.9226 37.7922C30.3713 38.6865 30.5976 39.7738 30.5976 41.0541C30.5976 42.4133 30.3323 43.5716 29.8056 44.5171C29.275 45.4665 28.5766 46.2308 27.7026 46.8178C26.8325 47.4048 25.8181 47.8302 24.671 48.0981C23.52 48.366 22.3105 48.5 21.0425 48.5C19.4038 48.5 17.9095 48.3148 16.5634 47.9405C15.2173 47.5663 14 47.1014 12.9154 46.538L12.7554 46.018L13.4304 41.7357H14.4214L14.6204 41.976C14.753 43.6031 15.4007 44.7968 16.5634 45.5571C17.7261 46.3174 19.3101 46.6996 21.3195 46.6996C23.3288 46.6996 24.9324 46.2268 25.9781 45.2774C27.0237 44.3319 27.5426 43.0949 27.5426 41.5742C27.5426 40.6405 27.3436 39.8604 26.9496 39.2341C26.5516 38.6077 26.0288 38.0719 25.385 37.6346C24.7373 37.1933 23.996 36.827 23.165 36.5354C22.3339 36.2439 21.4951 35.9484 20.6484 35.653C19.5911 35.3063 18.6079 34.9281 17.6949 34.5105C16.7819 34.0968 15.9898 33.6083 15.3149 33.0489C14.6399 32.4895 14.1131 31.8237 13.7308 31.0476C13.3484 30.2754 13.1573 29.3536 13.1573 28.2859C13.1573 27.0331 13.3757 25.9695 13.8127 25.1027C14.2497 24.236 14.8506 23.5269 15.6153 22.9832C16.38 22.4356 17.2735 22.0417 18.2918 21.8014C19.3101 21.561 20.4143 21.4429 21.6004 21.4429C23.0284 21.4429 24.3745 21.5768 25.6425 21.8447C26.9106 22.1126 27.9406 22.4317 28.7365 22.806L28.8965 23.2472L28.3425 26.8086H27.2344L27.0354 26.6077C26.9808 25.9143 26.7584 25.3549 26.3604 24.9255C25.9624 24.5 25.4943 24.1651 24.9519 23.9248C24.4096 23.6845 23.8283 23.523 23.2079 23.4442C22.5875 23.3654 22.0374 23.326 21.5614 23.326C19.8447 23.326 18.4947 23.7081 17.5193 24.4685C16.54 25.2288 16.0523 26.3161 16.0523 27.7304H16.0484Z" fill="url(#paint2_linear_76_694)"/>
</mask>
<g mask="url(#mask2_76_694)">
<rect id="Rectangle_3" x="0.597656" y="0.5" width="30.0427" height="48.063" fill="#222222"/>
</g>
</g>
</g>
<defs>
<linearGradient id="paint0_linear_76_694" x1="-3.13622" y1="23.2393" x2="21.3788" y2="-1.04343" gradientUnits="userSpaceOnUse">
<stop stop-color="#AB8D60"/>
<stop offset="0.15" stop-color="#AB8D60"/>
<stop offset="0.37" stop-color="#C6AC7E"/>
<stop offset="0.61" stop-color="#E1CB9B"/>
<stop offset="0.72" stop-color="#EED9AB"/>
<stop offset="0.84" stop-color="#E1CB9B"/>
<stop offset="1" stop-color="#AB8D60"/>
</linearGradient>
<linearGradient id="paint1_linear_76_694" x1="19.8058" y1="27.9353" x2="23.4222" y2="24.3537" gradientUnits="userSpaceOnUse">
<stop stop-color="#AB8D60"/>
<stop offset="0.15" stop-color="#AB8D60"/>
<stop offset="0.37" stop-color="#C6AC7E"/>
<stop offset="0.61" stop-color="#E1CB9B"/>
<stop offset="0.72" stop-color="#EED9AB"/>
<stop offset="0.84" stop-color="#E1CB9B"/>
<stop offset="1" stop-color="#AB8D60"/>
</linearGradient>
<linearGradient id="paint2_linear_76_694" x1="11.542" y1="45.1553" x2="31.3966" y2="25.4919" gradientUnits="userSpaceOnUse">
<stop stop-color="#AB8D60"/>
<stop offset="0.15" stop-color="#AB8D60"/>
<stop offset="0.37" stop-color="#C6AC7E"/>
<stop offset="0.61" stop-color="#E1CB9B"/>
<stop offset="0.72" stop-color="#EED9AB"/>
<stop offset="0.84" stop-color="#E1CB9B"/>
<stop offset="1" stop-color="#AB8D60"/>
</linearGradient>
</defs>
</svg>
