<svg width="20" height="19" viewBox="0 0 20 19" fill="none" xmlns="http://www.w3.org/2000/svg">
<g clip-path="url(#clip0_3_2230)">
<path d="M15.0613 12.8195C14.1669 12.8195 13.3611 13.2057 12.8019 13.8201L7.77163 10.7046C7.90593 10.3608 7.98042 9.98739 7.98042 9.59674C7.98042 9.20595 7.90593 8.83254 7.77163 8.48889L12.8019 5.37328C13.3611 5.98766 14.1669 6.37403 15.0613 6.37403C16.7461 6.37403 18.1167 5.00343 18.1167 3.31866C18.1167 1.63389 16.7461 0.263428 15.0613 0.263428C13.3765 0.263428 12.0059 1.63403 12.0059 3.3188C12.0059 3.70945 12.0805 4.08286 12.2147 4.42665L7.1846 7.54212C6.62534 6.92774 5.81955 6.54137 4.92518 6.54137C3.24041 6.54137 1.86981 7.91211 1.86981 9.59674C1.86981 11.2815 3.24041 12.6521 4.92518 12.6521C5.81955 12.6521 6.62534 12.2659 7.1846 11.6514L12.2147 14.7668C12.0805 15.1106 12.0059 15.484 12.0059 15.8748C12.0059 17.5595 13.3765 18.9301 15.0613 18.9301C16.7461 18.9301 18.1167 17.5595 18.1167 15.8748C18.1167 14.1901 16.7461 12.8195 15.0613 12.8195ZM13.12 3.3188C13.12 2.24841 13.9909 1.37754 15.0613 1.37754C16.1317 1.37754 17.0026 2.24841 17.0026 3.3188C17.0026 4.38919 16.1317 5.26006 15.0613 5.26006C13.9909 5.26006 13.12 4.38919 13.12 3.3188ZM4.92518 11.538C3.85465 11.538 2.98378 10.6671 2.98378 9.59674C2.98378 8.52635 3.85465 7.65548 4.92518 7.65548C5.99558 7.65548 6.8663 8.52635 6.8663 9.59674C6.8663 10.6671 5.99558 11.538 4.92518 11.538ZM13.12 15.8747C13.12 14.8043 13.9909 13.9334 15.0613 13.9334C16.1317 13.9334 17.0026 14.8043 17.0026 15.8747C17.0026 16.9451 16.1317 17.8159 15.0613 17.8159C13.9909 17.8159 13.12 16.9451 13.12 15.8747Z" fill="white"/>
</g>
<defs>
<clipPath id="clip0_3_2230">
<rect width="18.6667" height="18.6667" fill="white" transform="translate(0.666656 0.263428)"/>
</clipPath>
</defs>
</svg>
